<?xml version="1.0" encoding="utf-8"?>
<!-- Generator: Adobe Illustrator 26.0.1, SVG Export Plug-In . SVG Version: 6.00 Build 0)  -->
<svg version="1.1" id="Layer_1" xmlns="http://www.w3.org/2000/svg" xmlns:xlink="http://www.w3.org/1999/xlink" x="0px" y="0px"
	 viewBox="0 0 570 511.67" style="enable-background:new 0 0 570 511.67;" xml:space="preserve">
<style type="text/css">
	.st0{fill:#3F3D56;}
	.st1{fill:#E6E6E6;}
	.st2{fill:#56A3FF;}
	.st3{fill:#FFFFFF;}
</style>
<path class="st0" d="M304.6,245.3c-0.02,0-0.03-0.01-0.05-0.02l-23.29-18.07c-0.15-0.11-0.34-0.11-0.48,0l-23.12,18.07
	c-0.04,0.03-0.09,0.02-0.12-0.02c-0.03-0.04-0.02-0.1,0.02-0.13l23.12-18.07c0.2-0.16,0.47-0.16,0.68,0l23.29,18.07
	c0.04,0.03,0.05,0.09,0.02,0.13C304.65,245.28,304.63,245.3,304.6,245.3L304.6,245.3z"/>
<polygon class="st1" points="258.98,245.94 281.05,227.72 303.28,247.23 282.18,261.16 270.73,258.25 "/>
<path class="st2" d="M271.7,269.77h-10.9c-0.28,0-0.51-0.25-0.51-0.57c0-0.31,0.23-0.57,0.51-0.57c0,0,0,0,0,0h10.9
	c0.28,0,0.51,0.25,0.51,0.57C272.21,269.51,271.98,269.77,271.7,269.77C271.7,269.77,271.7,269.77,271.7,269.77z"/>
<path class="st2" d="M264.71,267.33h-3.91c-0.28,0-0.51-0.25-0.51-0.57c0-0.31,0.23-0.57,0.51-0.57c0,0,0,0,0,0h3.91
	c0.28,0,0.51,0.25,0.51,0.57C265.22,267.07,264.99,267.33,264.71,267.33C264.71,267.33,264.71,267.33,264.71,267.33z"/>
<path class="st3" d="M281.36,256.08c-0.08,0-0.16-0.02-0.24-0.05l-13.61-6.29v-19.69c0-0.36,0.26-0.66,0.59-0.66h26.11
	c0.33,0,0.59,0.29,0.59,0.66v19.7l-0.03,0.01l-13.16,6.26C281.53,256.06,281.44,256.08,281.36,256.08z"/>
<path class="st0" d="M281.36,256.13c-0.09,0-0.18-0.02-0.26-0.06l-13.63-6.3v-19.72c0-0.39,0.28-0.7,0.63-0.7h26.11
	c0.35,0,0.63,0.32,0.63,0.7v19.73l-13.21,6.29C281.54,256.11,281.45,256.13,281.36,256.13z M267.63,249.65l13.53,6.25
	c0.13,0.06,0.27,0.06,0.39,0l13.11-6.24v-19.61c0-0.28-0.21-0.52-0.46-0.52H268.1c-0.26,0-0.46,0.23-0.46,0.52L267.63,249.65z"/>
<path class="st0" d="M304.43,245.11h-0.02l-9.67,4.6L281.52,256c-0.1,0.05-0.22,0.05-0.33,0l-13.65-6.31l-9.9-4.58l-0.02-0.01h-0.02
	c-0.33,0-0.59,0.29-0.59,0.66v28.52c0,0.36,0.26,0.66,0.59,0.66h46.82c0.33,0,0.59-0.29,0.59-0.66v-28.52
	C305.02,245.4,304.76,245.11,304.43,245.11z M304.85,274.28c0,0.26-0.19,0.47-0.42,0.47h-46.82c-0.23,0-0.42-0.21-0.42-0.47v-28.52
	c0-0.25,0.18-0.46,0.41-0.47l9.95,4.6l13.58,6.28c0.15,0.07,0.31,0.07,0.46,0l13.16-6.26l9.7-4.61c0.23,0.01,0.4,0.22,0.4,0.47
	V274.28z"/>
<path class="st2" d="M281.22,250.5c-0.5,0-0.99-0.18-1.39-0.52l-0.02-0.02l-5.25-4.48c-1.02-0.87-1.22-2.5-0.43-3.64
	c0.78-1.14,2.25-1.35,3.27-0.48l3.4,2.9l8.03-11.67c0.78-1.14,2.25-1.35,3.27-0.48c0,0,0,0,0,0l-0.05,0.08l0.05-0.07
	c1.02,0.87,1.21,2.5,0.43,3.64l-9.45,13.73C282.63,250.13,281.95,250.5,281.22,250.5z"/>
</svg>
