<?xml version="1.0" encoding="utf-8"?>
<!-- Generator: Adobe Illustrator 26.0.1, SVG Export Plug-In . SVG Version: 6.00 Build 0)  -->
<svg version="1.1" id="Layer_1" xmlns="http://www.w3.org/2000/svg" xmlns:xlink="http://www.w3.org/1999/xlink" x="0px" y="0px"
	 viewBox="0 0 1121 1059" style="enable-background:new 0 0 1121 1059;" xml:space="preserve">
<style type="text/css">
	.st0{fill:#FFFFFF;stroke:#000000;stroke-miterlimit:10;}
	.st1{opacity:0.24;fill:url(#SVGID_1_);stroke:#000000;stroke-miterlimit:10;}
	.st2{fill:url(#SVGID_00000004535875493121494860000013896074292224905369_);}
	.st3{fill:url(#SVGID_00000050647890851014913070000007005031976857934264_);}
	.st4{fill:url(#SVGID_00000029753823199881584810000004596939746742320313_);}
	.st5{fill:url(#SVGID_00000069389320297982910190000004596446337269907617_);stroke:#000000;stroke-miterlimit:10;}
	.st6{fill:url(#SVGID_00000160882025798356804260000012746745475654153873_);stroke:#000000;stroke-miterlimit:10;}
	.st7{fill:url(#SVGID_00000043424900004713542390000010593228808184623028_);stroke:#000000;stroke-miterlimit:10;}
	.st8{fill:url(#SVGID_00000028285450263829583660000004219497039474173625_);stroke:#000000;stroke-miterlimit:10;}
	.st9{fill:url(#SVGID_00000074400221562949978740000007317786922713493435_);stroke:#000000;stroke-miterlimit:10;}
	.st10{opacity:0.28;fill:#FFFFFF;}
	.st11{opacity:0.16;fill:#FFFFFF;}
	.st12{opacity:0.1;fill:#FFFFFF;}
	.st13{opacity:0.14;fill:#FFFFFF;}
	.st14{fill:url(#SVGID_00000082346847460041577900000001282136989625574072_);}
	.st15{fill:url(#SVGID_00000036934317769252293630000017200306473858288313_);}
	.st16{opacity:0.1;fill:#F2F2F2;}
	.st17{opacity:0.19;fill:#FFFFFF;}
	.st18{opacity:0.24;fill:#E6E6E6;}
	.st19{opacity:0.46;fill:#3F3D56;}
	.st20{opacity:0.37;fill:#FFFFFF;}
	.st21{opacity:0.33;fill:#FFFFFF;}
	.st22{opacity:0.21;fill:#FFFFFF;stroke:#000000;stroke-width:0.75;stroke-miterlimit:10;}
	.st23{opacity:0.22;fill:#FFFFFF;stroke:#FFFFFF;stroke-width:0.75;stroke-miterlimit:10;}
	.st24{opacity:0.24;fill:#FFFFFF;stroke:#64FFFF;stroke-miterlimit:10;}
	.st25{opacity:0.25;fill:#FFFFFF;stroke:#000000;stroke-width:0.75;stroke-miterlimit:10;}
	.st26{opacity:0.24;fill:#FFFFFF;stroke:#000000;stroke-width:0.75;stroke-miterlimit:10;}
	.st27{opacity:0.46;fill:#FFFFFF;}
	.st28{opacity:0.24;fill:#FFFFFF;}
</style>
<path class="st0" d="M792,181.9"/>
<path class="st0" d="M0,5"/>
<linearGradient id="SVGID_1_" gradientUnits="userSpaceOnUse" x1="-108.1453" y1="893.8868" x2="870.959" y2="-7.5313" gradientTransform="matrix(1 0 0 -1 0 1060)">
	<stop  offset="0" style="stop-color:#00B2B5"/>
	<stop  offset="0.28" style="stop-color:#00B2E8"/>
	<stop  offset="0.6172" style="stop-color:#0080BA"/>
	<stop  offset="0.9983" style="stop-color:#01396A"/>
</linearGradient>
<path class="st1" d="M21.5-12.9c0,0,440.2-0.5,440.2,0S274,257.1,498,249.2c224-7.9-89.4,202.1,173.5,267.2S792.4,743.9,885,799.9
	c189.3,114.5,315.6,162.5,188.2,189.2c-175.6,36.8-282.5-1.6-500.1,8.4l-550.5-7.4L21.5-12.9z"/>
<linearGradient id="SVGID_00000105392715645438343880000009903862284323029412_" gradientUnits="userSpaceOnUse" x1="-132.7779" y1="881.447" x2="846.3265" y2="-19.9711" gradientTransform="matrix(1 0 0 -1 0 1060)">
	<stop  offset="0" style="stop-color:#00B2B5"/>
	<stop  offset="0.28" style="stop-color:#00BCE8"/>
	<stop  offset="0.6175" style="stop-color:#316FB0"/>
	<stop  offset="0.999" style="stop-color:#312D82"/>
</linearGradient>
<path style="fill:url(#SVGID_00000105392715645438343880000009903862284323029412_);" d="M-3.1-0.5c0,0,440.2-0.5,440.2,0
	s-187.7,270,36.3,262.1S384,463.8,646.9,528.9s120.9,227.4,213.5,283.4c189.3,114.5,315.6,162.5,188.2,189.2
	c-175.6,36.8-282.5-1.6-500.1,8.4l-550.5-7.4L-3.1-0.5z"/>
<linearGradient id="SVGID_00000101784678668902307990000009749467163337630630_" gradientUnits="userSpaceOnUse" x1="903.8905" y1="157.0949" x2="903.8905" y2="157.0949">
	<stop  offset="0" style="stop-color:#00B2B5"/>
	<stop  offset="0.28" style="stop-color:#00B2E8"/>
	<stop  offset="0.6172" style="stop-color:#0080BA"/>
	<stop  offset="0.9983" style="stop-color:#01396A"/>
</linearGradient>
<path style="fill:url(#SVGID_00000101784678668902307990000009749467163337630630_);" d="M903.9,157.1"/>
<linearGradient id="SVGID_00000152258829335280522380000008819097390229706154_" gradientUnits="userSpaceOnUse" x1="43.528" y1="37.302" x2="499.1776" y2="8.9225" gradientTransform="matrix(1.0462 -0.1011 -0.1053 -1.1696 32.7838 1103.889)">
	<stop  offset="0" style="stop-color:#FFFFFF"/>
	<stop  offset="1" style="stop-color:#FFFFFF"/>
</linearGradient>
<path style="fill:url(#SVGID_00000152258829335280522380000008819097390229706154_);" d="M199.2,940.2
	c-187.9,33.9-406,130.4-386.2,181.7c39.4,102.2,1032,47.5,1057.4-52.3C886.2,1007.8,543.5,878,199.2,940.2z M140.4,1020.8
	c-6.4,0-6.4-10,0-10C146.9,1010.8,146.8,1020.8,140.4,1020.8z"/>
<linearGradient id="SVGID_00000043448792042658204090000000560931996607054479_" gradientUnits="userSpaceOnUse" x1="1057.3503" y1="408.3066" x2="1057.3503" y2="408.3066">
	<stop  offset="0" style="stop-color:#00B2B5"/>
	<stop  offset="0.28" style="stop-color:#00B2E8"/>
	<stop  offset="0.6172" style="stop-color:#0080BA"/>
	<stop  offset="0.9983" style="stop-color:#01396A"/>
</linearGradient>
<path style="fill:url(#SVGID_00000043448792042658204090000000560931996607054479_);stroke:#000000;stroke-miterlimit:10;" d="
	M1057.4,408.3"/>
<linearGradient id="SVGID_00000165921167023722146920000005394533284108315534_" gradientUnits="userSpaceOnUse" x1="792.05" y1="306.3504" x2="792.05" y2="306.3504">
	<stop  offset="0" style="stop-color:#00B2B5"/>
	<stop  offset="0.28" style="stop-color:#00B2E8"/>
	<stop  offset="0.6172" style="stop-color:#0080BA"/>
	<stop  offset="0.9983" style="stop-color:#01396A"/>
</linearGradient>
<path style="fill:url(#SVGID_00000165921167023722146920000005394533284108315534_);stroke:#000000;stroke-miterlimit:10;" d="
	M792,306.4"/>
<linearGradient id="SVGID_00000065044600513862096060000012629985368964395155_" gradientUnits="userSpaceOnUse" x1="839.7737" y1="664.7737" x2="839.7737" y2="664.7737">
	<stop  offset="0" style="stop-color:#00B2B5"/>
	<stop  offset="0.28" style="stop-color:#00B2E8"/>
	<stop  offset="0.6172" style="stop-color:#0080BA"/>
	<stop  offset="0.9983" style="stop-color:#01396A"/>
</linearGradient>
<path style="fill:url(#SVGID_00000065044600513862096060000012629985368964395155_);stroke:#000000;stroke-miterlimit:10;" d="
	M839.8,664.8"/>
<linearGradient id="SVGID_00000153674646442146780780000009488987269240908693_" gradientUnits="userSpaceOnUse" x1="1015.3066" y1="333.6788" x2="1015.3066" y2="333.6788">
	<stop  offset="0" style="stop-color:#00B2B5"/>
	<stop  offset="0.28" style="stop-color:#00B2E8"/>
	<stop  offset="0.6172" style="stop-color:#0080BA"/>
	<stop  offset="0.9983" style="stop-color:#01396A"/>
</linearGradient>
<path style="fill:url(#SVGID_00000153674646442146780780000009488987269240908693_);stroke:#000000;stroke-miterlimit:10;" d="
	M1015.3,333.7"/>
<linearGradient id="SVGID_00000150794924446702997110000001391132511244518061_" gradientUnits="userSpaceOnUse" x1="667.3942" y1="135.0219" x2="667.3942" y2="135.0219">
	<stop  offset="0" style="stop-color:#00B2B5"/>
	<stop  offset="0.28" style="stop-color:#00B2E8"/>
	<stop  offset="0.6172" style="stop-color:#0080BA"/>
	<stop  offset="0.9983" style="stop-color:#01396A"/>
</linearGradient>
<path style="fill:url(#SVGID_00000150794924446702997110000001391132511244518061_);stroke:#000000;stroke-miterlimit:10;" d="
	M667.4,135"/>
<polyline class="st10" points="248,211.8 182.8,123.5 74.1,119.2 137.6,197 "/>
<polyline class="st11" points="280.3,225.4 215.1,137.1 106.4,132.9 169.9,210.7 "/>
<path class="st12" d="M294,607.5H177.3c-17.6,0-32.1-14.4-32.1-32.1v-30v-40.5c0-17.6,14.4-32.1,32.1-32.1H294
	c17.6,0,32.1,14.4,32.1,32.1v70.4C326,593.1,311.6,607.5,294,607.5z"/>
<path class="st13" d="M193.9,535.5H77.2c-17.6,0-32.1-14.4-32.1-32.1V433c0-17.6,14.4-32.1,32.1-32.1h116.7
	c17.6,0,32.1,14.4,32.1,32.1v70.4C226,521.1,211.5,535.5,193.9,535.5z"/>
<linearGradient id="SVGID_00000009552327336682948310000001718194129659112636_" gradientUnits="userSpaceOnUse" x1="886.0219" y1="246.438" x2="886.0219" y2="246.438">
	<stop  offset="0" style="stop-color:#00B2B5"/>
	<stop  offset="0.28" style="stop-color:#00B2E8"/>
	<stop  offset="0.6172" style="stop-color:#0080BA"/>
	<stop  offset="0.9983" style="stop-color:#01396A"/>
</linearGradient>
<path style="fill:url(#SVGID_00000009552327336682948310000001718194129659112636_);" d="M886,246.4"/>
<linearGradient id="SVGID_00000024701124352609134220000000980880378826614435_" gradientUnits="userSpaceOnUse" x1="-486.0657" y1="-387.781" x2="-486.0657" y2="-387.781">
	<stop  offset="0" style="stop-color:#00B2B5"/>
	<stop  offset="0.28" style="stop-color:#00BCE8"/>
	<stop  offset="0.6175" style="stop-color:#316FB0"/>
	<stop  offset="0.999" style="stop-color:#312D82"/>
</linearGradient>
<path style="fill:url(#SVGID_00000024701124352609134220000000980880378826614435_);" d="M-486.1-387.8"/>
<path class="st16" d="M511.4,872.4L511.4,872.4c-1.9,0-3.5-1.4-3.5-3.2V682.7c0-1.8,1.5-3.2,3.5-3.2h170.5c1.9,0,3.4,1.4,3.5,3.2
	v145.1c0,1.7-1.5,3.2-3.4,3.2L511.4,872.4z"/>
<path class="st17" d="M635.8,653.1h-79.2v-42.2c0-1.9,1.6-3.4,3.7-3.4h71.9c2,0,3.7,1.5,3.7,3.4V653.1z M557.5,652.4H635v-41.5
	c0-1.4-1.3-2.6-2.8-2.6h-71.9c-1.6,0-2.8,1.2-2.8,2.6V652.4z"/>
<path class="st18" d="M579.6,626.6h34.1c1.8,0,3.2,1.3,3.2,3v44.9l0,0h-40.6l0,0v-44.9C576.4,628,577.8,626.6,579.6,626.6
	L579.6,626.6z"/>
<path class="st19" d="M583.9,591.1c1.1,0,2,0.8,2,1.9v15.3h-16.6V593c0-1,0.9-1.9,2-1.9"/>
<path class="st20" d="M571.3,591.8c-0.7,0-1.2,0.5-1.2,1.1v14.6h15V593c0-0.6-0.5-1.1-1.2-1.1"/>
<path class="st21" d="M517.4,656.1l0.3,0.5c0.1,0.2,0.2,0.5,0.2,0.8v14.8h14.2v-14.8c0-0.3,0.1-0.5,0.2-0.8l0.3-0.5H517.4z
	 M531.3,657.4v14h-12.6v-14c0-0.2,0-0.4-0.1-0.6h12.7C531.3,657.1,531.3,657.3,531.3,657.4L531.3,657.4z M535.3,656.1l0.3,0.5
	c0.1,0.2,0.2,0.5,0.2,0.8v14.8H550v-14.8c0-0.3,0.1-0.5,0.2-0.8l0.3-0.5H535.3z M549.2,657.4v14h-12.6v-14c0-0.2,0-0.4-0.1-0.6h12.7
	C549.2,657.1,549.2,657.3,549.2,657.4L549.2,657.4z M553.1,656.1l0.3,0.5c0.1,0.2,0.2,0.5,0.2,0.8v14.8h14.2v-14.8
	c0-0.3,0.1-0.5,0.2-0.8l0.3-0.5H553.1z M567,657.4v14h-12.6v-14c0-0.2,0-0.4-0.1-0.6h12.7C567,657.1,567,657.3,567,657.4L567,657.4z
	 M571,656.1l0.3,0.5c0.1,0.2,0.2,0.5,0.2,0.8v14.8h14.2v-14.8c0-0.3,0.1-0.5,0.2-0.8l0.3-0.5H571z M584.9,657.4v14h-12.6v-14
	c0-0.2,0-0.4-0.1-0.6H585C584.9,657.1,584.9,657.3,584.9,657.4z M588.8,656.1l0.3,0.5c0.1,0.2,0.2,0.5,0.2,0.8v14.8h14.2v-14.8
	c0-0.3,0.1-0.5,0.2-0.8l0.3-0.5H588.8z M602.7,657.4v14h-12.6v-14c0-0.2,0-0.4-0.1-0.6h12.7C602.8,657.1,602.7,657.3,602.7,657.4z
	 M606.7,656.1l0.3,0.5c0.1,0.2,0.2,0.5,0.2,0.8v14.8h14.2v-14.8c0-0.3,0.1-0.5,0.2-0.8l0.3-0.5H606.7z M620.6,657.4v14H608v-14
	c0-0.2,0-0.4-0.1-0.6h12.7C620.6,657.1,620.6,657.3,620.6,657.4z M624.6,656.1l0.3,0.5c0.1,0.2,0.2,0.5,0.2,0.8v14.8h14.2v-14.8
	c0-0.3,0.1-0.5,0.2-0.8l0.3-0.5H624.6z M638.5,657.4v14h-12.6v-14c0-0.2,0-0.4-0.1-0.6h12.7C638.5,657.1,638.5,657.3,638.5,657.4z
	 M642.4,656.1l0.3,0.5c0.1,0.2,0.2,0.5,0.2,0.8v14.8h14.2v-14.8c0-0.3,0.1-0.5,0.2-0.8l0.3-0.5H642.4z M656.3,657.4v14h-12.6v-14
	c0-0.2,0-0.4-0.1-0.6h12.7C656.4,657.1,656.3,657.3,656.3,657.4z M660.3,656.1l0.3,0.5c0.1,0.2,0.2,0.5,0.2,0.8v14.8H675v-14.8
	c0-0.3,0.1-0.5,0.2-0.8l0.3-0.5H660.3z M674.2,657.4v14h-12.6v-14c0-0.2,0-0.4-0.1-0.6h12.7C674.2,657.1,674.2,657.3,674.2,657.4z
	 M660.3,656.1l0.3,0.5c0.1,0.2,0.2,0.5,0.2,0.8v14.8H675v-14.8c0-0.3,0.1-0.5,0.2-0.8l0.3-0.5H660.3z M674.2,657.4v14h-12.6v-14
	c0-0.2,0-0.4-0.1-0.6h12.7C674.2,657.1,674.2,657.3,674.2,657.4z M642.4,656.1l0.3,0.5c0.1,0.2,0.2,0.5,0.2,0.8v14.8h14.2v-14.8
	c0-0.3,0.1-0.5,0.2-0.8l0.3-0.5H642.4z M656.3,657.4v14h-12.6v-14c0-0.2,0-0.4-0.1-0.6h12.7C656.4,657.1,656.3,657.3,656.3,657.4z
	 M624.6,656.1l0.3,0.5c0.1,0.2,0.2,0.5,0.2,0.8v14.8h14.2v-14.8c0-0.3,0.1-0.5,0.2-0.8l0.3-0.5H624.6z M638.5,657.4v14h-12.6v-14
	c0-0.2,0-0.4-0.1-0.6h12.7C638.5,657.1,638.5,657.3,638.5,657.4z M606.7,656.1l0.3,0.5c0.1,0.2,0.2,0.5,0.2,0.8v14.8h14.2v-14.8
	c0-0.3,0.1-0.5,0.2-0.8l0.3-0.5H606.7z M620.6,657.4v14H608v-14c0-0.2,0-0.4-0.1-0.6h12.7C620.6,657.1,620.6,657.3,620.6,657.4z
	 M588.8,656.1l0.3,0.5c0.1,0.2,0.2,0.5,0.2,0.8v14.8h14.2v-14.8c0-0.3,0.1-0.5,0.2-0.8l0.3-0.5H588.8z M602.7,657.4v14h-12.6v-14
	c0-0.2,0-0.4-0.1-0.6h12.7C602.8,657.1,602.7,657.3,602.7,657.4z M571,656.1l0.3,0.5c0.1,0.2,0.2,0.5,0.2,0.8v14.8h14.2v-14.8
	c0-0.3,0.1-0.5,0.2-0.8l0.3-0.5H571z M584.9,657.4v14h-12.6v-14c0-0.2,0-0.4-0.1-0.6H585C584.9,657.1,584.9,657.3,584.9,657.4z
	 M553.1,656.1l0.3,0.5c0.1,0.2,0.2,0.5,0.2,0.8v14.8h14.2v-14.8c0-0.3,0.1-0.5,0.2-0.8l0.3-0.5H553.1z M567,657.4v14h-12.6v-14
	c0-0.2,0-0.4-0.1-0.6h12.7C567,657.1,567,657.3,567,657.4L567,657.4z M535.3,656.1l0.3,0.5c0.1,0.2,0.2,0.5,0.2,0.8v14.8H550v-14.8
	c0-0.3,0.1-0.5,0.2-0.8l0.3-0.5H535.3z M549.2,657.4v14h-12.6v-14c0-0.2,0-0.4-0.1-0.6h12.7C549.2,657.1,549.2,657.3,549.2,657.4
	L549.2,657.4z M517.4,656.1l0.3,0.5c0.1,0.2,0.2,0.5,0.2,0.8v14.8h14.2v-14.8c0-0.3,0.1-0.5,0.2-0.8l0.3-0.5H517.4z M531.3,657.4v14
	h-12.6v-14c0-0.2,0-0.4-0.1-0.6h12.7C531.3,657.1,531.3,657.3,531.3,657.4L531.3,657.4z M660.3,656.1l0.3,0.5
	c0.1,0.2,0.2,0.5,0.2,0.8v14.8H675v-14.8c0-0.3,0.1-0.5,0.2-0.8l0.3-0.5H660.3z M674.2,657.4v14h-12.6v-14c0-0.2,0-0.4-0.1-0.6h12.7
	C674.2,657.1,674.2,657.3,674.2,657.4z M642.4,656.1l0.3,0.5c0.1,0.2,0.2,0.5,0.2,0.8v14.8h14.2v-14.8c0-0.3,0.1-0.5,0.2-0.8
	l0.3-0.5H642.4z M656.3,657.4v14h-12.6v-14c0-0.2,0-0.4-0.1-0.6h12.7C656.4,657.1,656.3,657.3,656.3,657.4z M624.6,656.1l0.3,0.5
	c0.1,0.2,0.2,0.5,0.2,0.8v14.8h14.2v-14.8c0-0.3,0.1-0.5,0.2-0.8l0.3-0.5H624.6z M638.5,657.4v14h-12.6v-14c0-0.2,0-0.4-0.1-0.6
	h12.7C638.5,657.1,638.5,657.3,638.5,657.4z M606.7,656.1l0.3,0.5c0.1,0.2,0.2,0.5,0.2,0.8v14.8h14.2v-14.8c0-0.3,0.1-0.5,0.2-0.8
	l0.3-0.5H606.7z M620.6,657.4v14H608v-14c0-0.2,0-0.4-0.1-0.6h12.7C620.6,657.1,620.6,657.3,620.6,657.4z M588.8,656.1l0.3,0.5
	c0.1,0.2,0.2,0.5,0.2,0.8v14.8h14.2v-14.8c0-0.3,0.1-0.5,0.2-0.8l0.3-0.5H588.8z M602.7,657.4v14h-12.6v-14c0-0.2,0-0.4-0.1-0.6
	h12.7C602.8,657.1,602.7,657.3,602.7,657.4z M571,656.1l0.3,0.5c0.1,0.2,0.2,0.5,0.2,0.8v14.8h14.2v-14.8c0-0.3,0.1-0.5,0.2-0.8
	l0.3-0.5H571z M584.9,657.4v14h-12.6v-14c0-0.2,0-0.4-0.1-0.6H585C584.9,657.1,584.9,657.3,584.9,657.4z M553.1,656.1l0.3,0.5
	c0.1,0.2,0.2,0.5,0.2,0.8v14.8h14.2v-14.8c0-0.3,0.1-0.5,0.2-0.8l0.3-0.5H553.1z M567,657.4v14h-12.6v-14c0-0.2,0-0.4-0.1-0.6h12.7
	C567,657.1,567,657.3,567,657.4L567,657.4z M535.3,656.1l0.3,0.5c0.1,0.2,0.2,0.5,0.2,0.8v14.8H550v-14.8c0-0.3,0.1-0.5,0.2-0.8
	l0.3-0.5H535.3z M549.2,657.4v14h-12.6v-14c0-0.2,0-0.4-0.1-0.6h12.7C549.2,657.1,549.2,657.3,549.2,657.4L549.2,657.4z
	 M517.4,656.1l0.3,0.5c0.1,0.2,0.2,0.5,0.2,0.8v14.8h14.2v-14.8c0-0.3,0.1-0.5,0.2-0.8l0.3-0.5H517.4z M531.3,657.4v14h-12.6v-14
	c0-0.2,0-0.4-0.1-0.6h12.7C531.3,657.1,531.3,657.3,531.3,657.4L531.3,657.4z M660.3,656.1l0.3,0.5c0.1,0.2,0.2,0.5,0.2,0.8v14.8
	H675v-14.8c0-0.3,0.1-0.5,0.2-0.8l0.3-0.5H660.3z M674.2,657.4v14h-12.6v-14c0-0.2,0-0.4-0.1-0.6h12.7
	C674.2,657.1,674.2,657.3,674.2,657.4z M642.4,656.1l0.3,0.5c0.1,0.2,0.2,0.5,0.2,0.8v14.8h14.2v-14.8c0-0.3,0.1-0.5,0.2-0.8
	l0.3-0.5H642.4z M656.3,657.4v14h-12.6v-14c0-0.2,0-0.4-0.1-0.6h12.7C656.4,657.1,656.3,657.3,656.3,657.4z M624.6,656.1l0.3,0.5
	c0.1,0.2,0.2,0.5,0.2,0.8v14.8h14.2v-14.8c0-0.3,0.1-0.5,0.2-0.8l0.3-0.5H624.6z M638.5,657.4v14h-12.6v-14c0-0.2,0-0.4-0.1-0.6
	h12.7C638.5,657.1,638.5,657.3,638.5,657.4z M606.7,656.1l0.3,0.5c0.1,0.2,0.2,0.5,0.2,0.8v14.8h14.2v-14.8c0-0.3,0.1-0.5,0.2-0.8
	l0.3-0.5H606.7z M620.6,657.4v14H608v-14c0-0.2,0-0.4-0.1-0.6h12.7C620.6,657.1,620.6,657.3,620.6,657.4z M588.8,656.1l0.3,0.5
	c0.1,0.2,0.2,0.5,0.2,0.8v14.8h14.2v-14.8c0-0.3,0.1-0.5,0.2-0.8l0.3-0.5H588.8z M602.7,657.4v14h-12.6v-14c0-0.2,0-0.4-0.1-0.6
	h12.7C602.8,657.1,602.7,657.3,602.7,657.4z M571,656.1l0.3,0.5c0.1,0.2,0.2,0.5,0.2,0.8v14.8h14.2v-14.8c0-0.3,0.1-0.5,0.2-0.8
	l0.3-0.5H571z M584.9,657.4v14h-12.6v-14c0-0.2,0-0.4-0.1-0.6H585C584.9,657.1,584.9,657.3,584.9,657.4z M553.1,656.1l0.3,0.5
	c0.1,0.2,0.2,0.5,0.2,0.8v14.8h14.2v-14.8c0-0.3,0.1-0.5,0.2-0.8l0.3-0.5H553.1z M567,657.4v14h-12.6v-14c0-0.2,0-0.4-0.1-0.6h12.7
	C567,657.1,567,657.3,567,657.4L567,657.4z M535.3,656.1l0.3,0.5c0.1,0.2,0.2,0.5,0.2,0.8v14.8H550v-14.8c0-0.3,0.1-0.5,0.2-0.8
	l0.3-0.5H535.3z M549.2,657.4v14h-12.6v-14c0-0.2,0-0.4-0.1-0.6h12.7C549.2,657.1,549.2,657.3,549.2,657.4L549.2,657.4z
	 M517.4,656.1l0.3,0.5c0.1,0.2,0.2,0.5,0.2,0.8v14.8h14.2v-14.8c0-0.3,0.1-0.5,0.2-0.8l0.3-0.5H517.4z M531.3,657.4v14h-12.6v-14
	c0-0.2,0-0.4-0.1-0.6h12.7C531.3,657.1,531.3,657.3,531.3,657.4L531.3,657.4z M660.3,656.1l0.3,0.5c0.1,0.2,0.2,0.5,0.2,0.8v14.8
	H675v-14.8c0-0.3,0.1-0.5,0.2-0.8l0.3-0.5H660.3z M674.2,657.4v14h-12.6v-14c0-0.2,0-0.4-0.1-0.6h12.7
	C674.2,657.1,674.2,657.3,674.2,657.4z M642.4,656.1l0.3,0.5c0.1,0.2,0.2,0.5,0.2,0.8v14.8h14.2v-14.8c0-0.3,0.1-0.5,0.2-0.8
	l0.3-0.5H642.4z M656.3,657.4v14h-12.6v-14c0-0.2,0-0.4-0.1-0.6h12.7C656.4,657.1,656.3,657.3,656.3,657.4z M624.6,656.1l0.3,0.5
	c0.1,0.2,0.2,0.5,0.2,0.8v14.8h14.2v-14.8c0-0.3,0.1-0.5,0.2-0.8l0.3-0.5H624.6z M638.5,657.4v14h-12.6v-14c0-0.2,0-0.4-0.1-0.6
	h12.7C638.5,657.1,638.5,657.3,638.5,657.4z M606.7,656.1l0.3,0.5c0.1,0.2,0.2,0.5,0.2,0.8v14.8h14.2v-14.8c0-0.3,0.1-0.5,0.2-0.8
	l0.3-0.5H606.7z M620.6,657.4v14H608v-14c0-0.2,0-0.4-0.1-0.6h12.7C620.6,657.1,620.6,657.3,620.6,657.4z M588.8,656.1l0.3,0.5
	c0.1,0.2,0.2,0.5,0.2,0.8v14.8h14.2v-14.8c0-0.3,0.1-0.5,0.2-0.8l0.3-0.5H588.8z M602.7,657.4v14h-12.6v-14c0-0.2,0-0.4-0.1-0.6
	h12.7C602.8,657.1,602.7,657.3,602.7,657.4z M571,656.1l0.3,0.5c0.1,0.2,0.2,0.5,0.2,0.8v14.8h14.2v-14.8c0-0.3,0.1-0.5,0.2-0.8
	l0.3-0.5H571z M584.9,657.4v14h-12.6v-14c0-0.2,0-0.4-0.1-0.6H585C584.9,657.1,584.9,657.3,584.9,657.4z M553.1,656.1l0.3,0.5
	c0.1,0.2,0.2,0.5,0.2,0.8v14.8h14.2v-14.8c0-0.3,0.1-0.5,0.2-0.8l0.3-0.5H553.1z M567,657.4v14h-12.6v-14c0-0.2,0-0.4-0.1-0.6h12.7
	C567,657.1,567,657.3,567,657.4L567,657.4z M535.3,656.1l0.3,0.5c0.1,0.2,0.2,0.5,0.2,0.8v14.8H550v-14.8c0-0.3,0.1-0.5,0.2-0.8
	l0.3-0.5H535.3z M549.2,657.4v14h-12.6v-14c0-0.2,0-0.4-0.1-0.6h12.7C549.2,657.1,549.2,657.3,549.2,657.4L549.2,657.4z
	 M517.4,656.1l0.3,0.5c0.1,0.2,0.2,0.5,0.2,0.8v14.8h14.2v-14.8c0-0.3,0.1-0.5,0.2-0.8l0.3-0.5H517.4z M531.3,657.4v14h-12.6v-14
	c0-0.2,0-0.4-0.1-0.6h12.7C531.3,657.1,531.3,657.3,531.3,657.4L531.3,657.4z M660.3,656.1l0.3,0.5c0.1,0.2,0.2,0.5,0.2,0.8v14.8
	H675v-14.8c0-0.3,0.1-0.5,0.2-0.8l0.3-0.5H660.3z M674.2,657.4v14h-12.6v-14c0-0.2,0-0.4-0.1-0.6h12.7
	C674.2,657.1,674.2,657.3,674.2,657.4z M642.7,656.7c0.1,0.2,0.2,0.5,0.2,0.8v14.8h14.2v-14.8c0-0.3,0.1-0.5,0.2-0.8l0.3-0.5h-15.2
	L642.7,656.7z M656.4,656.9c0,0.2-0.1,0.4-0.1,0.6v14h-12.6v-14c0-0.2,0-0.4-0.1-0.6H656.4z M624.9,656.7c0.1,0.2,0.2,0.5,0.2,0.8
	v14.8h14.2v-14.8c0-0.3,0.1-0.5,0.2-0.8l0.3-0.5h-15.2L624.9,656.7z M638.6,656.9c0,0.2-0.1,0.4-0.1,0.6v14h-12.6v-14
	c0-0.2,0-0.4-0.1-0.6H638.6z M607,656.7c0.1,0.2,0.2,0.5,0.2,0.8v14.8h14.2v-14.8c0-0.3,0.1-0.5,0.2-0.8l0.3-0.5h-15.2L607,656.7z
	 M620.7,656.9c0,0.2-0.1,0.4-0.1,0.6v14H608v-14c0-0.2,0-0.4-0.1-0.6H620.7z M589.1,656.7c0.1,0.2,0.2,0.5,0.2,0.8v14.8h14.2v-14.8
	c0-0.3,0.1-0.5,0.2-0.8l0.3-0.5h-15.2L589.1,656.7z M602.8,656.9c0,0.2-0.1,0.4-0.1,0.6v14h-12.6v-14c0-0.2,0-0.4-0.1-0.6H602.8z
	 M571.3,656.7c0.1,0.2,0.2,0.5,0.2,0.8v14.8h14.2v-14.8c0-0.3,0.1-0.5,0.2-0.8l0.3-0.5H571L571.3,656.7z M585,656.9
	c0,0.2-0.1,0.4-0.1,0.6v14h-12.6v-14c0-0.2,0-0.4-0.1-0.6H585z M553.4,656.7c0.1,0.2,0.2,0.5,0.2,0.8v14.8h14.2v-14.8
	c0-0.3,0.1-0.5,0.2-0.8l0.3-0.5h-15.2L553.4,656.7z M567.1,656.9c0,0.2-0.1,0.4-0.1,0.6v14h-12.6v-14c0-0.2,0-0.4-0.1-0.6H567.1z
	 M535.6,656.7c0.1,0.2,0.2,0.5,0.2,0.8v14.8H550v-14.8c0-0.3,0.1-0.5,0.2-0.8l0.3-0.5h-15.2L535.6,656.7z M549.2,656.9
	c0,0.2-0.1,0.4-0.1,0.6v14h-12.6v-14c0-0.2,0-0.4-0.1-0.6H549.2z M517.7,656.7c0.1,0.2,0.2,0.5,0.2,0.8v14.8h14.2v-14.8
	c0-0.3,0.1-0.5,0.2-0.8l0.3-0.5h-15.2L517.7,656.7z M531.4,656.9c0,0.2-0.1,0.4-0.1,0.6v14h-12.6v-14c0-0.2,0-0.4-0.1-0.6H531.4z
	 M660.6,656.7c0.1,0.2,0.2,0.5,0.2,0.8v14.8H675v-14.8c0-0.3,0.1-0.5,0.2-0.8l0.3-0.5h-15.2L660.6,656.7z M674.3,656.9
	c0,0.2-0.1,0.4-0.1,0.6v14h-12.6v-14c0-0.2,0-0.4-0.1-0.6H674.3z M642.7,656.7c0.1,0.2,0.2,0.5,0.2,0.8v14.8h14.2v-14.8
	c0-0.3,0.1-0.5,0.2-0.8l0.3-0.5h-15.2L642.7,656.7z M656.4,656.9c0,0.2-0.1,0.4-0.1,0.6v14h-12.6v-14c0-0.2,0-0.4-0.1-0.6H656.4z
	 M624.9,656.7c0.1,0.2,0.2,0.5,0.2,0.8v14.8h14.2v-14.8c0-0.3,0.1-0.5,0.2-0.8l0.3-0.5h-15.2L624.9,656.7z M638.6,656.9
	c0,0.2-0.1,0.4-0.1,0.6v14h-12.6v-14c0-0.2,0-0.4-0.1-0.6H638.6z M607,656.7c0.1,0.2,0.2,0.5,0.2,0.8v14.8h14.2v-14.8
	c0-0.3,0.1-0.5,0.2-0.8l0.3-0.5h-15.2L607,656.7z M620.7,656.9c0,0.2-0.1,0.4-0.1,0.6v14H608v-14c0-0.2,0-0.4-0.1-0.6H620.7z
	 M589.1,656.7c0.1,0.2,0.2,0.5,0.2,0.8v14.8h14.2v-14.8c0-0.3,0.1-0.5,0.2-0.8l0.3-0.5h-15.2L589.1,656.7z M602.8,656.9
	c0,0.2-0.1,0.4-0.1,0.6v14h-12.6v-14c0-0.2,0-0.4-0.1-0.6H602.8z M571.3,656.7c0.1,0.2,0.2,0.5,0.2,0.8v14.8h14.2v-14.8
	c0-0.3,0.1-0.5,0.2-0.8l0.3-0.5H571L571.3,656.7z M585,656.9c0,0.2-0.1,0.4-0.1,0.6v14h-12.6v-14c0-0.2,0-0.4-0.1-0.6H585z
	 M553.4,656.7c0.1,0.2,0.2,0.5,0.2,0.8v14.8h14.2v-14.8c0-0.3,0.1-0.5,0.2-0.8l0.3-0.5h-15.2L553.4,656.7z M567.1,656.9
	c0,0.2-0.1,0.4-0.1,0.6v14h-12.6v-14c0-0.2,0-0.4-0.1-0.6H567.1z M535.6,656.7c0.1,0.2,0.2,0.5,0.2,0.8v14.8H550v-14.8
	c0-0.3,0.1-0.5,0.2-0.8l0.3-0.5h-15.2L535.6,656.7z M549.2,656.9c0,0.2-0.1,0.4-0.1,0.6v14h-12.6v-14c0-0.2,0-0.4-0.1-0.6H549.2z
	 M517.7,656.7c0.1,0.2,0.2,0.5,0.2,0.8v14.8h14.2v-14.8c0-0.3,0.1-0.5,0.2-0.8l0.3-0.5h-15.2L517.7,656.7z M531.4,656.9
	c0,0.2-0.1,0.4-0.1,0.6v14h-12.6v-14c0-0.2,0-0.4-0.1-0.6H531.4z M691.3,674.5h-4.8c-0.5-1.8-2.3-3-4.3-3h-2.6v-14
	c0-0.3-0.1-0.6-0.2-0.9c1.2-0.6,1.5-2,0.9-3.1c-0.4-0.7-1.2-1.1-2.1-1.1H514.9c-1.3,0-2.4,1-2.4,2.2c0,0.8,0.5,1.5,1.2,1.9
	c-0.1,0.3-0.2,0.6-0.2,0.9v14h-2.6c-2,0-3.7,1.2-4.3,3h-5.2c-2,0-3.7,1.5-3.7,3.4v197.4c0,1.9,1.6,3.4,3.7,3.4h190
	c2,0,3.7-1.5,3.7-3.4V677.8C694.9,676,693.3,674.5,691.3,674.5z M694.1,875.2c0,1.1-0.7,2.1-1.9,2.5c-0.3,0.1-0.6,0.2-1,0.2h-190
	c-0.3,0-0.7-0.1-1-0.2c-1.1-0.4-1.9-1.4-1.9-2.5V677.8c0-1.4,1.3-2.6,2.8-2.6h5.9l0.1-0.3c0.4-1.6,1.8-2.7,3.6-2.7h3.5v-14.8
	c0-0.3,0.1-0.6,0.3-0.9l0.3-0.4l-0.5-0.2c-0.8-0.3-1.3-1.1-1-1.9c0.2-0.6,0.8-1,1.5-1h163.2c0.9,0,1.6,0.7,1.6,1.5
	c0,0.6-0.4,1.2-1.1,1.4l-0.5,0.2l0.3,0.4c0.2,0.3,0.3,0.6,0.3,0.9v14.8h3.5c1.7,0,3.2,1.1,3.6,2.7l0.1,0.3h5.5
	c1.6,0,2.8,1.2,2.8,2.6V875.2z M517.4,656.1l0.3,0.5c0.1,0.2,0.2,0.5,0.2,0.8v14.8h14.2v-14.8c0-0.3,0.1-0.5,0.2-0.8l0.3-0.5H517.4z
	 M531.3,657.4v14h-12.6v-14c0-0.2,0-0.4-0.1-0.6h12.7C531.3,657.1,531.3,657.3,531.3,657.4L531.3,657.4z M535.3,656.1l0.3,0.5
	c0.1,0.2,0.2,0.5,0.2,0.8v14.8H550v-14.8c0-0.3,0.1-0.5,0.2-0.8l0.3-0.5H535.3z M549.2,657.4v14h-12.6v-14c0-0.2,0-0.4-0.1-0.6h12.7
	C549.2,657.1,549.2,657.3,549.2,657.4L549.2,657.4z M553.1,656.1l0.3,0.5c0.1,0.2,0.2,0.5,0.2,0.8v14.8h14.2v-14.8
	c0-0.3,0.1-0.5,0.2-0.8l0.3-0.5H553.1z M567,657.4v14h-12.6v-14c0-0.2,0-0.4-0.1-0.6h12.7C567,657.1,567,657.3,567,657.4L567,657.4z
	 M571,656.1l0.3,0.5c0.1,0.2,0.2,0.5,0.2,0.8v14.8h14.2v-14.8c0-0.3,0.1-0.5,0.2-0.8l0.3-0.5H571z M584.9,657.4v14h-12.6v-14
	c0-0.2,0-0.4-0.1-0.6H585C584.9,657.1,584.9,657.3,584.9,657.4z M588.8,656.1l0.3,0.5c0.1,0.2,0.2,0.5,0.2,0.8v14.8h14.2v-14.8
	c0-0.3,0.1-0.5,0.2-0.8l0.3-0.5H588.8z M602.7,657.4v14h-12.6v-14c0-0.2,0-0.4-0.1-0.6h12.7C602.8,657.1,602.7,657.3,602.7,657.4z
	 M606.7,656.1l0.3,0.5c0.1,0.2,0.2,0.5,0.2,0.8v14.8h14.2v-14.8c0-0.3,0.1-0.5,0.2-0.8l0.3-0.5H606.7z M620.6,657.4v14H608v-14
	c0-0.2,0-0.4-0.1-0.6h12.7C620.6,657.1,620.6,657.3,620.6,657.4z M624.6,656.1l0.3,0.5c0.1,0.2,0.2,0.5,0.2,0.8v14.8h14.2v-14.8
	c0-0.3,0.1-0.5,0.2-0.8l0.3-0.5H624.6z M638.5,657.4v14h-12.6v-14c0-0.2,0-0.4-0.1-0.6h12.7C638.5,657.1,638.5,657.3,638.5,657.4z
	 M642.4,656.1l0.3,0.5c0.1,0.2,0.2,0.5,0.2,0.8v14.8h14.2v-14.8c0-0.3,0.1-0.5,0.2-0.8l0.3-0.5H642.4z M656.3,657.4v14h-12.6v-14
	c0-0.2,0-0.4-0.1-0.6h12.7C656.4,657.1,656.3,657.3,656.3,657.4z M660.3,656.1l0.3,0.5c0.1,0.2,0.2,0.5,0.2,0.8v14.8H675v-14.8
	c0-0.3,0.1-0.5,0.2-0.8l0.3-0.5H660.3z M674.2,657.4v14h-12.6v-14c0-0.2,0-0.4-0.1-0.6h12.7C674.2,657.1,674.2,657.3,674.2,657.4z
	 M517.4,656.1l0.3,0.5c0.1,0.2,0.2,0.5,0.2,0.8v14.8h14.2v-14.8c0-0.3,0.1-0.5,0.2-0.8l0.3-0.5H517.4z M531.3,657.4v14h-12.6v-14
	c0-0.2,0-0.4-0.1-0.6h12.7C531.3,657.1,531.3,657.3,531.3,657.4L531.3,657.4z M535.3,656.1l0.3,0.5c0.1,0.2,0.2,0.5,0.2,0.8v14.8
	H550v-14.8c0-0.3,0.1-0.5,0.2-0.8l0.3-0.5H535.3z M549.2,657.4v14h-12.6v-14c0-0.2,0-0.4-0.1-0.6h12.7
	C549.2,657.1,549.2,657.3,549.2,657.4L549.2,657.4z M553.1,656.1l0.3,0.5c0.1,0.2,0.2,0.5,0.2,0.8v14.8h14.2v-14.8
	c0-0.3,0.1-0.5,0.2-0.8l0.3-0.5H553.1z M567,657.4v14h-12.6v-14c0-0.2,0-0.4-0.1-0.6h12.7C567,657.1,567,657.3,567,657.4L567,657.4z
	 M571,656.1l0.3,0.5c0.1,0.2,0.2,0.5,0.2,0.8v14.8h14.2v-14.8c0-0.3,0.1-0.5,0.2-0.8l0.3-0.5H571z M584.9,657.4v14h-12.6v-14
	c0-0.2,0-0.4-0.1-0.6H585C584.9,657.1,584.9,657.3,584.9,657.4z M588.8,656.1l0.3,0.5c0.1,0.2,0.2,0.5,0.2,0.8v14.8h14.2v-14.8
	c0-0.3,0.1-0.5,0.2-0.8l0.3-0.5H588.8z M602.7,657.4v14h-12.6v-14c0-0.2,0-0.4-0.1-0.6h12.7C602.8,657.1,602.7,657.3,602.7,657.4z
	 M606.7,656.1l0.3,0.5c0.1,0.2,0.2,0.5,0.2,0.8v14.8h14.2v-14.8c0-0.3,0.1-0.5,0.2-0.8l0.3-0.5H606.7z M620.6,657.4v14H608v-14
	c0-0.2,0-0.4-0.1-0.6h12.7C620.6,657.1,620.6,657.3,620.6,657.4z M624.6,656.1l0.3,0.5c0.1,0.2,0.2,0.5,0.2,0.8v14.8h14.2v-14.8
	c0-0.3,0.1-0.5,0.2-0.8l0.3-0.5H624.6z M638.5,657.4v14h-12.6v-14c0-0.2,0-0.4-0.1-0.6h12.7C638.5,657.1,638.5,657.3,638.5,657.4z
	 M642.4,656.1l0.3,0.5c0.1,0.2,0.2,0.5,0.2,0.8v14.8h14.2v-14.8c0-0.3,0.1-0.5,0.2-0.8l0.3-0.5H642.4z M656.3,657.4v14h-12.6v-14
	c0-0.2,0-0.4-0.1-0.6h12.7C656.4,657.1,656.3,657.3,656.3,657.4z M660.3,656.1l0.3,0.5c0.1,0.2,0.2,0.5,0.2,0.8v14.8H675v-14.8
	c0-0.3,0.1-0.5,0.2-0.8l0.3-0.5H660.3z M674.2,657.4v14h-12.6v-14c0-0.2,0-0.4-0.1-0.6h12.7C674.2,657.1,674.2,657.3,674.2,657.4z
	 M517.4,656.1l0.3,0.5c0.1,0.2,0.2,0.5,0.2,0.8v14.8h14.2v-14.8c0-0.3,0.1-0.5,0.2-0.8l0.3-0.5H517.4z M531.3,657.4v14h-12.6v-14
	c0-0.2,0-0.4-0.1-0.6h12.7C531.3,657.1,531.3,657.3,531.3,657.4L531.3,657.4z M535.3,656.1l0.3,0.5c0.1,0.2,0.2,0.5,0.2,0.8v14.8
	H550v-14.8c0-0.3,0.1-0.5,0.2-0.8l0.3-0.5H535.3z M549.2,657.4v14h-12.6v-14c0-0.2,0-0.4-0.1-0.6h12.7
	C549.2,657.1,549.2,657.3,549.2,657.4L549.2,657.4z M553.1,656.1l0.3,0.5c0.1,0.2,0.2,0.5,0.2,0.8v14.8h14.2v-14.8
	c0-0.3,0.1-0.5,0.2-0.8l0.3-0.5H553.1z M567,657.4v14h-12.6v-14c0-0.2,0-0.4-0.1-0.6h12.7C567,657.1,567,657.3,567,657.4L567,657.4z
	 M571,656.1l0.3,0.5c0.1,0.2,0.2,0.5,0.2,0.8v14.8h14.2v-14.8c0-0.3,0.1-0.5,0.2-0.8l0.3-0.5H571z M584.9,657.4v14h-12.6v-14
	c0-0.2,0-0.4-0.1-0.6H585C584.9,657.1,584.9,657.3,584.9,657.4z M588.8,656.1l0.3,0.5c0.1,0.2,0.2,0.5,0.2,0.8v14.8h14.2v-14.8
	c0-0.3,0.1-0.5,0.2-0.8l0.3-0.5H588.8z M602.7,657.4v14h-12.6v-14c0-0.2,0-0.4-0.1-0.6h12.7C602.8,657.1,602.7,657.3,602.7,657.4z
	 M606.7,656.1l0.3,0.5c0.1,0.2,0.2,0.5,0.2,0.8v14.8h14.2v-14.8c0-0.3,0.1-0.5,0.2-0.8l0.3-0.5H606.7z M620.6,657.4v14H608v-14
	c0-0.2,0-0.4-0.1-0.6h12.7C620.6,657.1,620.6,657.3,620.6,657.4z M624.6,656.1l0.3,0.5c0.1,0.2,0.2,0.5,0.2,0.8v14.8h14.2v-14.8
	c0-0.3,0.1-0.5,0.2-0.8l0.3-0.5H624.6z M638.5,657.4v14h-12.6v-14c0-0.2,0-0.4-0.1-0.6h12.7C638.5,657.1,638.5,657.3,638.5,657.4z
	 M642.4,656.1l0.3,0.5c0.1,0.2,0.2,0.5,0.2,0.8v14.8h14.2v-14.8c0-0.3,0.1-0.5,0.2-0.8l0.3-0.5H642.4z M656.3,657.4v14h-12.6v-14
	c0-0.2,0-0.4-0.1-0.6h12.7C656.4,657.1,656.3,657.3,656.3,657.4z M660.3,656.1l0.3,0.5c0.1,0.2,0.2,0.5,0.2,0.8v14.8H675v-14.8
	c0-0.3,0.1-0.5,0.2-0.8l0.3-0.5H660.3z M674.2,657.4v14h-12.6v-14c0-0.2,0-0.4-0.1-0.6h12.7C674.2,657.1,674.2,657.3,674.2,657.4z
	 M517.4,656.1l0.3,0.5c0.1,0.2,0.2,0.5,0.2,0.8v14.8h14.2v-14.8c0-0.3,0.1-0.5,0.2-0.8l0.3-0.5H517.4z M531.3,657.4v14h-12.6v-14
	c0-0.2,0-0.4-0.1-0.6h12.7C531.3,657.1,531.3,657.3,531.3,657.4L531.3,657.4z M535.3,656.1l0.3,0.5c0.1,0.2,0.2,0.5,0.2,0.8v14.8
	H550v-14.8c0-0.3,0.1-0.5,0.2-0.8l0.3-0.5H535.3z M549.2,657.4v14h-12.6v-14c0-0.2,0-0.4-0.1-0.6h12.7
	C549.2,657.1,549.2,657.3,549.2,657.4L549.2,657.4z M553.1,656.1l0.3,0.5c0.1,0.2,0.2,0.5,0.2,0.8v14.8h14.2v-14.8
	c0-0.3,0.1-0.5,0.2-0.8l0.3-0.5H553.1z M567,657.4v14h-12.6v-14c0-0.2,0-0.4-0.1-0.6h12.7C567,657.1,567,657.3,567,657.4L567,657.4z
	 M571,656.1l0.3,0.5c0.1,0.2,0.2,0.5,0.2,0.8v14.8h14.2v-14.8c0-0.3,0.1-0.5,0.2-0.8l0.3-0.5H571z M584.9,657.4v14h-12.6v-14
	c0-0.2,0-0.4-0.1-0.6H585C584.9,657.1,584.9,657.3,584.9,657.4z M588.8,656.1l0.3,0.5c0.1,0.2,0.2,0.5,0.2,0.8v14.8h14.2v-14.8
	c0-0.3,0.1-0.5,0.2-0.8l0.3-0.5H588.8z M602.7,657.4v14h-12.6v-14c0-0.2,0-0.4-0.1-0.6h12.7C602.8,657.1,602.7,657.3,602.7,657.4z
	 M606.7,656.1l0.3,0.5c0.1,0.2,0.2,0.5,0.2,0.8v14.8h14.2v-14.8c0-0.3,0.1-0.5,0.2-0.8l0.3-0.5H606.7z M620.6,657.4v14H608v-14
	c0-0.2,0-0.4-0.1-0.6h12.7C620.6,657.1,620.6,657.3,620.6,657.4z M624.6,656.1l0.3,0.5c0.1,0.2,0.2,0.5,0.2,0.8v14.8h14.2v-14.8
	c0-0.3,0.1-0.5,0.2-0.8l0.3-0.5H624.6z M638.5,657.4v14h-12.6v-14c0-0.2,0-0.4-0.1-0.6h12.7C638.5,657.1,638.5,657.3,638.5,657.4z
	 M642.4,656.1l0.3,0.5c0.1,0.2,0.2,0.5,0.2,0.8v14.8h14.2v-14.8c0-0.3,0.1-0.5,0.2-0.8l0.3-0.5H642.4z M656.3,657.4v14h-12.6v-14
	c0-0.2,0-0.4-0.1-0.6h12.7C656.4,657.1,656.3,657.3,656.3,657.4z M660.3,656.1l0.3,0.5c0.1,0.2,0.2,0.5,0.2,0.8v14.8H675v-14.8
	c0-0.3,0.1-0.5,0.2-0.8l0.3-0.5H660.3z M674.2,657.4v14h-12.6v-14c0-0.2,0-0.4-0.1-0.6h12.7C674.2,657.1,674.2,657.3,674.2,657.4z"
	/>
<path class="st22" d="M565.7,721.6h-29.9c-1.3,0-2.4-1-2.4-2.2v-14.7c0-1.2,1.1-2.2,2.4-2.2h29.9c1.3,0,2.4,1,2.4,2.2v14.7
	C568,720.6,567,721.6,565.7,721.6z"/>
<path class="st23" d="M611.2,721.6h-29.9c-1.3,0-2.4-1-2.4-2.2v-14.7c0-1.2,1.1-2.2,2.4-2.2h29.9c1.3,0,2.4,1,2.4,2.2v14.7
	C613.6,720.6,612.5,721.6,611.2,721.6z"/>
<path class="st24" d="M656.8,721.6h-29.9c-1.3,0-2.4-1-2.4-2.2v-14.7c0-1.2,1.1-2.2,2.4-2.2h29.9c1.3,0,2.4,1,2.4,2.2v14.7
	C659.2,720.6,658.1,721.6,656.8,721.6z"/>
<path class="st25" d="M565.7,770.5h-29.9c-1.3,0-2.4-1-2.4-2.2v-14.7c0-1.2,1.1-2.2,2.4-2.2h29.9c1.3,0,2.4,1,2.4,2.2v14.7
	C568,769.6,567,770.5,565.7,770.5z"/>
<path class="st26" d="M611.2,770.5h-29.9c-1.3,0-2.4-1-2.4-2.2v-14.7c0-1.2,1.1-2.2,2.4-2.2h29.9c1.3,0,2.4,1,2.4,2.2v14.7
	C613.6,769.6,612.5,770.5,611.2,770.5z"/>
<path class="st26" d="M656.8,770.5h-29.9c-1.3,0-2.4-1-2.4-2.2v-14.7c0-1.2,1.1-2.2,2.4-2.2h29.9c1.3,0,2.4,1,2.4,2.2v14.7
	C659.2,769.6,658.1,770.5,656.8,770.5z"/>
<path class="st26" d="M565.7,819.5h-29.9c-1.3,0-2.4-1-2.4-2.2v-14.7c0-1.2,1.1-2.2,2.4-2.2h29.9c1.3,0,2.4,1,2.4,2.2v14.7
	C568,818.5,567,819.5,565.7,819.5z"/>
<path class="st26" d="M611.2,819.5h-29.9c-1.3,0-2.4-1-2.4-2.2v-14.7c0-1.2,1.1-2.2,2.4-2.2h29.9c1.3,0,2.4,1,2.4,2.2v14.7
	C613.6,818.5,612.5,819.5,611.2,819.5z"/>
<path class="st26" d="M656.8,819.5h-29.9c-1.3,0-2.4-1-2.4-2.2v-14.7c0-1.2,1.1-2.2,2.4-2.2h29.9c1.3,0,2.4,1,2.4,2.2v14.7
	C659.2,818.5,658.1,819.5,656.8,819.5z"/>
<path class="st27" d="M560.8,723.4h-34.7c-1.7,0-3.2-1.3-3.2-2.9v-17c0-1.6,1.4-2.9,3.2-2.9h34.7c1.7,0,3.2,1.3,3.2,2.9v17
	C564,722.1,562.6,723.4,560.8,723.4z M526.1,701.4c-1.3,0-2.3,1-2.3,2.2v17c0,1.2,1.1,2.2,2.3,2.2h34.7c1.3,0,2.3-1,2.3-2.2v-17
	c0-1.2-1.1-2.2-2.3-2.2H526.1z"/>
<path class="st27" d="M613.6,723.4h-34.7c-1.7,0-3.2-1.3-3.2-2.9v-17c0-1.6,1.4-2.9,3.2-2.9h34.7c1.7,0,3.2,1.3,3.2,2.9v17
	C616.8,722.1,615.3,723.4,613.6,723.4z M578.9,701.4c-1.3,0-2.3,1-2.3,2.2v17c0,1.2,1.1,2.2,2.3,2.2h34.7c1.3,0,2.3-1,2.3-2.2v-17
	c0-1.2-1.1-2.2-2.3-2.2H578.9z"/>
<path class="st27" d="M666.4,723.4h-34.7c-1.7,0-3.2-1.3-3.2-2.9v-17c0-1.6,1.4-2.9,3.2-2.9h34.7c1.7,0,3.2,1.3,3.2,2.9v17
	C669.5,722.1,668.1,723.4,666.4,723.4z M631.7,701.4c-1.3,0-2.3,1-2.3,2.2v17c0,1.2,1.1,2.2,2.3,2.2h34.7c1.3,0,2.3-1,2.3-2.2v-17
	c0-1.2-1.1-2.2-2.3-2.2H631.7z"/>
<path class="st27" d="M560.8,772.4h-34.7c-1.7,0-3.2-1.3-3.2-2.9v-17c0-1.6,1.4-2.9,3.2-2.9h34.7c1.7,0,3.2,1.3,3.2,2.9v17
	C564,771.1,562.6,772.4,560.8,772.4z M526.1,750.3c-1.3,0-2.3,1-2.3,2.2v17c0,1.2,1.1,2.2,2.3,2.2h34.7c1.3,0,2.3-1,2.3-2.2v-17
	c0-1.2-1.1-2.2-2.3-2.2H526.1z"/>
<path class="st27" d="M613.6,772.4h-34.7c-1.7,0-3.2-1.3-3.2-2.9v-17c0-1.6,1.4-2.9,3.2-2.9h34.7c1.7,0,3.2,1.3,3.2,2.9v17
	C616.8,771.1,615.3,772.4,613.6,772.4z M578.9,750.3c-1.3,0-2.3,1-2.3,2.2v17c0,1.2,1.1,2.2,2.3,2.2h34.7c1.3,0,2.3-1,2.3-2.2v-17
	c0-1.2-1.1-2.2-2.3-2.2H578.9z"/>
<path class="st27" d="M666.4,772.4h-34.7c-1.7,0-3.2-1.3-3.2-2.9v-17c0-1.6,1.4-2.9,3.2-2.9h34.7c1.7,0,3.2,1.3,3.2,2.9v17
	C669.5,771.1,668.1,772.4,666.4,772.4z M631.7,750.3c-1.3,0-2.3,1-2.3,2.2v17c0,1.2,1.1,2.2,2.3,2.2h34.7c1.3,0,2.3-1,2.3-2.2v-17
	c0-1.2-1.1-2.2-2.3-2.2H631.7z"/>
<path class="st27" d="M560.8,821.4h-34.7c-1.7,0-3.2-1.3-3.2-2.9v-17c0-1.6,1.4-2.9,3.2-2.9h34.7c1.7,0,3.2,1.3,3.2,2.9v17
	C564,820.1,562.6,821.4,560.8,821.4z M526.1,799.3c-1.3,0-2.3,1-2.3,2.2v17c0,1.2,1.1,2.2,2.3,2.2h34.7c1.3,0,2.3-1,2.3-2.2v-17
	c0-1.2-1.1-2.2-2.3-2.2H526.1z"/>
<path class="st27" d="M613.6,821.4h-34.7c-1.7,0-3.2-1.3-3.2-2.9v-17c0-1.6,1.4-2.9,3.2-2.9h34.7c1.7,0,3.2,1.3,3.2,2.9v17
	C616.8,820.1,615.3,821.4,613.6,821.4z M578.9,799.3c-1.3,0-2.3,1-2.3,2.2v17c0,1.2,1.1,2.2,2.3,2.2h34.7c1.3,0,2.3-1,2.3-2.2v-17
	c0-1.2-1.1-2.2-2.3-2.2H578.9z"/>
<path class="st27" d="M666.4,821.4h-34.7c-1.7,0-3.2-1.3-3.2-2.9v-17c0-1.6,1.4-2.9,3.2-2.9h34.7c1.7,0,3.2,1.3,3.2,2.9v17
	C669.5,820.1,668.1,821.4,666.4,821.4z M631.7,799.3c-1.3,0-2.3,1-2.3,2.2v17c0,1.2,1.1,2.2,2.3,2.2h34.7c1.3,0,2.3-1,2.3-2.2v-17
	c0-1.2-1.1-2.2-2.3-2.2H631.7z"/>
<path class="st19" d="M794.4,881.9"/>
<path class="st19" d="M294.6,881.9"/>
<path class="st19" d="M294.6,882.9"/>
<path class="st19" d="M794.4,882.9"/>
<path class="st28" d="M616.8,843c0-1.8-1.5-3.2-3.5-3.3h-17.1v38.7h20.5V843z"/>
<path class="st27" d="M596.7,878h-21.3v-35c0-2,1.7-3.5,3.9-3.6h17.5V878z M576.2,877.3h19.7v-37h-16.6c-1.7,0-3,1.3-3,2.8V877.3z"
	/>
<ellipse class="st19" cx="578" cy="860.3" rx="1.2" ry="1.1"/>
</svg>
