<svg id="Layer_1" data-name="Layer 1" xmlns="http://www.w3.org/2000/svg" xmlns:xlink="http://www.w3.org/1999/xlink" viewBox="0 0 34.19 44.42"><defs><linearGradient id="linear-gradient" x1="381.75" y1="232.14" x2="383.61" y2="232.14" gradientUnits="userSpaceOnUse"><stop offset="0" stop-color="#fff"/><stop offset="1"/></linearGradient></defs><path d="M391.72,213.84H358.49c-.27,0-.48.4-.48.9v42.61c0,.5.21.9.48.91h33.23c.14,0,.28-.12.37-.32v0a1.16,1.16,0,0,0,.06-.22,1.22,1.22,0,0,0,0-.34V214.74C392.2,214.24,392,213.84,391.72,213.84Zm.34,43.51a1.36,1.36,0,0,1-.05.36.67.67,0,0,1-.13.22.26.26,0,0,1-.16.07H358.49c-.19,0-.34-.29-.34-.65V214.74c0-.35.15-.64.34-.64h33.23c.19,0,.34.29.34.64Z" transform="translate(-358.01 -213.84)" style="fill:#3f3d56"/><rect x="0.07" y="3.62" width="34.05" height="0.26" style="fill:#3f3d56"/><ellipse cx="1.23" cy="1.94" rx="0.41" ry="0.77" style="fill:#3f3d56"/><ellipse cx="2.41" cy="1.94" rx="0.41" ry="0.77" style="fill:#3f3d56"/><ellipse cx="3.58" cy="1.94" rx="0.41" ry="0.77" style="fill:#3f3d56"/><path d="M383.65,223.44H366.57c-.39,0-.71-.61-.71-1.35s.32-1.35.71-1.35h17.08c.4,0,.71.61.71,1.35S384.05,223.44,383.65,223.44ZM366.57,221c-.33,0-.6.51-.6,1.14s.27,1.14.6,1.14h17.08c.33,0,.6-.51.6-1.14s-.27-1.14-.6-1.14Z" transform="translate(-358.01 -213.84)" style="fill:#3f3d56"/><path d="M366.71,231.67h-1.53c-.24,0-.44-.37-.44-.83s.2-.83.44-.83h1.53c.24,0,.44.38.44.83S367,231.67,366.71,231.67Z" transform="translate(-358.01 -213.84)" style="fill:#ccc"/><path d="M368.52,234.47h-3.34c-.24,0-.44-.37-.44-.83s.2-.83.44-.83h3.34c.24,0,.44.37.44.83S368.76,234.47,368.52,234.47Z" transform="translate(-358.01 -213.84)" style="fill:#ccc"/><path d="M367,243.9h-1.54c-.24,0-.43-.37-.43-.83s.19-.83.43-.83H367c.24,0,.43.37.43.83S367.23,243.9,367,243.9Z" transform="translate(-358.01 -213.84)" style="fill:#ccc"/><path d="M368.79,246.69h-3.34c-.24,0-.43-.37-.43-.83s.19-.82.43-.82h3.34c.24,0,.44.37.44.82S369,246.69,368.79,246.69Z" transform="translate(-358.01 -213.84)" style="fill:#ccc"/><path d="M377.06,243.59h-1.53c-.24,0-.44-.38-.44-.83s.2-.83.44-.83h1.53c.24,0,.44.37.44.83S377.3,243.59,377.06,243.59Z" transform="translate(-358.01 -213.84)" style="fill:#ccc"/><path d="M378.87,246.38h-3.34c-.24,0-.44-.37-.44-.83s.2-.82.44-.82h3.34c.24,0,.44.37.44.82S379.11,246.38,378.87,246.38Z" transform="translate(-358.01 -213.84)" style="fill:#ccc"/><path d="M376.9,232.19h-1.54c-.24,0-.43-.37-.43-.83s.19-.83.43-.83h1.54c.24,0,.43.37.43.83S377.14,232.19,376.9,232.19Z" transform="translate(-358.01 -213.84)" style="fill:#ccc"/><path d="M378.7,235h-3.34c-.24,0-.43-.37-.43-.83s.19-.83.43-.83h3.34c.25,0,.44.37.44.83S379,235,378.7,235Z" transform="translate(-358.01 -213.84)" style="fill:#ccc"/><path d="M387.13,231.57H385.6c-.24,0-.44-.37-.44-.83s.2-.83.44-.83h1.53c.25,0,.44.37.44.83S387.38,231.57,387.13,231.57Z" transform="translate(-358.01 -213.84)" style="fill:#ccc"/><path d="M388.94,234.37H385.6c-.24,0-.44-.38-.44-.83s.2-.83.44-.83h3.34c.24,0,.44.37.44.83S389.18,234.37,388.94,234.37Z" transform="translate(-358.01 -213.84)" style="fill:#ccc"/><ellipse cx="4.46" cy="18.4" rx="1.64" ry="3.11" style="fill:#fff"/><path d="M363.24,233.64h-1.53c-.09,0-.17-.14-.17-.31v-2.18c0-.17.08-.31.17-.31h.43c.06,0,.11.06.14.15l.12.37h.84c.09,0,.17.14.17.31v1.66C363.41,233.5,363.33,233.64,363.24,233.64Zm-1.53-2.59s-.06,0-.06.1v2.18c0,.06,0,.1.06.1h1.53s.06,0,.06-.1v-1.66s0-.1-.06-.1h-.9l-.15-.47s0,0-.05,0Z" transform="translate(-358.01 -213.84)" style="fill:#fff;stroke:#000;stroke-miterlimit:10;stroke-width:0.09px"/><ellipse cx="14.54" cy="18.92" rx="1.64" ry="3.11" style="fill:#fff"/><path d="M373.26,234.73h-1.42c-.09,0-.17-.14-.17-.31V231.1c0-.17.08-.31.17-.31h1s.07,0,.1.07l.39.6a.36.36,0,0,1,.06.24v2.72C373.42,234.59,373.35,234.73,373.26,234.73ZM371.84,231s-.06.05-.06.1v3.32c0,.05,0,.1.06.1h1.42s.06-.05.06-.1V231.7a.19.19,0,0,0,0-.08l-.4-.6,0,0Z" transform="translate(-358.01 -213.84)" style="fill:#fff;stroke:#000;stroke-miterlimit:10;stroke-width:0.09px"/><path d="M373,232.24h-.88s-.05,0-.05-.1,0-.11.05-.11H373s.05.05.05.11S373,232.24,373,232.24Z" transform="translate(-358.01 -213.84)" style="fill:#fff;stroke:#000;stroke-miterlimit:10;stroke-width:0.09px"/><path d="M373,232.86h-.88s-.05,0-.05-.1,0-.1.05-.1H373s.05,0,.05.1S373,232.86,373,232.86Z" transform="translate(-358.01 -213.84)" style="fill:#fff;stroke:#000;stroke-miterlimit:10;stroke-width:0.09px"/><path d="M373,233.49h-.88s-.05-.05-.05-.11,0-.1.05-.1H373s.05,0,.05.1S373,233.49,373,233.49Z" transform="translate(-358.01 -213.84)" style="fill:#fff;stroke:#000;stroke-miterlimit:10;stroke-width:0.09px"/><ellipse cx="24.67" cy="18.3" rx="1.64" ry="3.11" style="fill:#fff"/><path d="M383.44,233.28h-1.53c-.09,0-.16-.14-.16-.31v-1.66c0-.17.07-.31.16-.31h1.53c.1,0,.17.14.17.31V233C383.61,233.14,383.54,233.28,383.44,233.28Zm-1.53-2.07s-.05,0-.05.1V233c0,.05,0,.1.05.1h1.53s.06,0,.06-.1v-1.66c0-.06,0-.1-.06-.1Z" transform="translate(-358.01 -213.84)" style="stroke:#000;stroke-miterlimit:10;stroke-width:0.09px;fill:url(#linear-gradient)"/><path d="M382.68,232.41a.11.11,0,0,1-.09,0l-.82-1a.19.19,0,0,1,0-.15s.05-.06.07,0l.82,1a0,0,0,0,0,.06,0l.81-1s.06,0,.08,0a.16.16,0,0,1,0,.15l-.81,1A.11.11,0,0,1,382.68,232.41Z" transform="translate(-358.01 -213.84)" style="fill:#fff;stroke:#000;stroke-miterlimit:10;stroke-width:0.09px"/><ellipse cx="4.46" cy="30.63" rx="1.64" ry="3.11" style="fill:#fff"/><path d="M363.24,245.61h-1.53c-.09,0-.17-.14-.17-.32v-1.65c0-.17.08-.31.17-.31h1.53c.09,0,.17.14.17.31v1.65C363.41,245.47,363.33,245.61,363.24,245.61Zm-1.53-2.08s-.06.05-.06.11v1.65c0,.06,0,.11.06.11h1.53s.06-.05.06-.11v-1.65c0-.06,0-.11-.06-.11Z" transform="translate(-358.01 -213.84)" style="fill:#fff;stroke:#000;stroke-miterlimit:10;stroke-width:0.09px"/><path d="M363,245.61h-1.1c-.06,0-.11-.1-.11-.21a.41.41,0,0,1,0-.11l.33-1.08c0-.1.1-.14.15-.08a.2.2,0,0,1,0,.08l.22.7.12-.41c0-.1.1-.13.15-.07a.16.16,0,0,1,0,.07l.24.79a.32.32,0,0,1,0,.29.05.05,0,0,1-.05,0Zm0-.21h0l-.24-.79-.18.56a0,0,0,0,1,0,.05h0s0,0-.05-.05l-.26-.86-.33,1.09Z" transform="translate(-358.01 -213.84)" style="fill:#fff;stroke:#000;stroke-miterlimit:10;stroke-width:0.09px"/><ellipse cx="5.07" cy="30.11" rx="0.11" ry="0.21" style="fill:#fff;stroke:#000;stroke-miterlimit:10;stroke-width:0.09px"/><ellipse cx="14.65" cy="30.32" rx="1.64" ry="3.11" style="fill:#fff"/><path d="M372.66,244.21c-.27,0-.49-.42-.49-.94s.22-.93.49-.93.49.42.49.93S372.93,244.21,372.66,244.21Zm0-1.66c-.21,0-.38.32-.38.72s.17.73.38.73.38-.32.38-.73S372.87,242.55,372.66,242.55Z" transform="translate(-358.01 -213.84)" style="fill:#fff;stroke:#000;stroke-miterlimit:10;stroke-width:0.09px"/><path d="M373.1,246h-.88c-.11,0-.19-.16-.19-.36,0-.66.28-1.2.63-1.2s.63.54.63,1.2C373.29,245.81,373.2,246,373.1,246Zm-.44-1.35c-.29,0-.52.44-.52,1,0,.08,0,.15.08.15h.88s.08-.07.08-.15C373.18,245.06,373,244.62,372.66,244.62Z" transform="translate(-358.01 -213.84)" style="fill:#fff;stroke:#000;stroke-miterlimit:10;stroke-width:0.09px"/></svg>