<svg id="Layer_1" data-name="Layer 1" xmlns="http://www.w3.org/2000/svg" viewBox="0 0 48 48"><path d="M438.54,190.38H391.88c-.37,0-.67.44-.67,1v46c0,.54.3,1,.67,1h46.66a.64.64,0,0,0,.51-.34s0,0,0,0a1.33,1.33,0,0,0,.1-.24,1.44,1.44,0,0,0,0-.37v-46C439.21,190.82,438.91,190.38,438.54,190.38Zm.48,47a1,1,0,0,1-.08.39.62.62,0,0,1-.18.23.4.4,0,0,1-.22.08H391.88c-.27,0-.48-.31-.48-.7v-46c0-.39.21-.7.48-.7h46.66c.26,0,.48.31.48.7Z" transform="translate(-391.21 -190.38)" style="fill:#3f3d56"/><rect x="0.1" y="3.91" width="47.81" height="0.28" style="fill:#3f3d56"/><ellipse cx="1.72" cy="2.09" rx="0.57" ry="0.84" style="fill:#3f3d56"/><ellipse cx="3.38" cy="2.09" rx="0.57" ry="0.84" style="fill:#3f3d56"/><ellipse cx="5.03" cy="2.09" rx="0.57" ry="0.84" style="fill:#3f3d56"/><path d="M427.21,200.75h-24c-.55,0-1-.65-1-1.45s.44-1.46,1-1.46h24c.55,0,1,.65,1,1.46S427.76,200.75,427.21,200.75Zm-24-2.68c-.46,0-.84.55-.84,1.23s.38,1.23.84,1.23h24c.46,0,.84-.55.84-1.23s-.38-1.23-.84-1.23Z" transform="translate(-391.21 -190.38)" style="fill:#3f3d56"/><path d="M403.42,209.65h-2.15c-.34,0-.61-.4-.61-.89s.27-.9.61-.9h2.15c.34,0,.62.4.62.9S403.76,209.65,403.42,209.65Z" transform="translate(-391.21 -190.38)" style="fill:#ccc"/><path d="M406,212.68h-4.69c-.34,0-.61-.41-.61-.9s.27-.9.61-.9H406c.34,0,.62.4.62.9S406.3,212.68,406,212.68Z" transform="translate(-391.21 -190.38)" style="fill:#ccc"/><path d="M403.81,222.86h-2.15c-.34,0-.62-.4-.62-.89s.28-.9.62-.9h2.15c.34,0,.61.4.61.9S404.15,222.86,403.81,222.86Z" transform="translate(-391.21 -190.38)" style="fill:#ccc"/><path d="M406.35,225.89h-4.69c-.34,0-.62-.41-.62-.9s.28-.9.62-.9h4.69c.34,0,.61.41.61.9S406.69,225.89,406.35,225.89Z" transform="translate(-391.21 -190.38)" style="fill:#ccc"/><path d="M418,222.53H415.8c-.34,0-.61-.4-.61-.9s.27-.89.61-.89H418c.34,0,.62.4.62.89S418.29,222.53,418,222.53Z" transform="translate(-391.21 -190.38)" style="fill:#ccc"/><path d="M420.49,225.55H415.8c-.34,0-.61-.4-.61-.9s.27-.89.61-.89h4.69c.34,0,.61.4.61.89S420.83,225.55,420.49,225.55Z" transform="translate(-391.21 -190.38)" style="fill:#ccc"/><path d="M417.72,210.21h-2.15c-.34,0-.61-.4-.61-.89s.27-.9.61-.9h2.15c.34,0,.62.4.62.9S418.06,210.21,417.72,210.21Z" transform="translate(-391.21 -190.38)" style="fill:#ccc"/><path d="M420.26,213.23h-4.69c-.34,0-.61-.4-.61-.89s.27-.9.61-.9h4.69c.34,0,.61.4.61.9S420.6,213.23,420.26,213.23Z" transform="translate(-391.21 -190.38)" style="fill:#ccc"/><path d="M432.1,209.54h-2.16c-.34,0-.61-.4-.61-.9s.27-.89.61-.89h2.16c.34,0,.61.4.61.89S432.44,209.54,432.1,209.54Z" transform="translate(-391.21 -190.38)" style="fill:#ccc"/><path d="M434.63,212.56h-4.69c-.34,0-.61-.4-.61-.89s.27-.9.61-.9h4.69c.34,0,.62.4.62.9S435,212.56,434.63,212.56Z" transform="translate(-391.21 -190.38)" style="fill:#ccc"/><ellipse cx="6.27" cy="19.89" rx="2.31" ry="3.36" style="fill:#5c9ffb"/><path d="M398.55,211.78H396.4c-.13,0-.23-.15-.23-.34v-2.35c0-.18.1-.33.23-.33H397a.22.22,0,0,1,.19.16l.17.4h1.18c.13,0,.23.15.23.33v1.79C398.78,211.63,398.68,211.78,398.55,211.78ZM396.4,209s-.08.05-.08.11v2.35c0,.07,0,.12.08.12h2.15s.08-.05.08-.12v-1.79c0-.06,0-.11-.08-.11h-1.27l-.21-.51A.07.07,0,0,0,397,209Z" transform="translate(-391.21 -190.38)" style="fill:#fff"/><ellipse cx="20.41" cy="20.45" rx="2.31" ry="3.36" style="fill:#5c9ffb"/><path d="M412.62,213h-2c-.13,0-.23-.16-.23-.34V209c0-.19.1-.34.23-.34h1.45a.19.19,0,0,1,.14.08l.55.64a.37.37,0,0,1,.09.26v2.94C412.85,212.8,412.75,213,412.62,213Zm-2-4s-.08.05-.08.12v3.58c0,.06,0,.11.08.11h2s.08,0,.08-.11v-2.94a.24.24,0,0,0,0-.09l-.55-.64s0,0-.05,0Z" transform="translate(-391.21 -190.38)" style="fill:#fff"/><path d="M412.23,210.27H411s-.07-.05-.07-.11,0-.12.07-.12h1.23s.08.05.08.12S412.28,210.27,412.23,210.27Z" transform="translate(-391.21 -190.38)" style="fill:#fff"/><path d="M412.23,210.94H411s-.07-.05-.07-.11,0-.11.07-.11h1.23s.08.05.08.11S412.28,210.94,412.23,210.94Z" transform="translate(-391.21 -190.38)" style="fill:#fff"/><path d="M412.23,211.61H411s-.07-.05-.07-.11,0-.11.07-.11h1.23s.08.05.08.11S412.28,211.61,412.23,211.61Z" transform="translate(-391.21 -190.38)" style="fill:#fff"/><ellipse cx="34.63" cy="19.78" rx="2.31" ry="3.36" style="fill:#5c9ffb"/><path d="M426.92,211.39h-2.16c-.12,0-.23-.15-.23-.34v-1.79a.32.32,0,0,1,.23-.34h2.16a.32.32,0,0,1,.23.34v1.79C427.15,211.24,427,211.39,426.92,211.39Zm-2.16-2.24s-.07,0-.07.11v1.79c0,.06,0,.11.07.11h2.16s.07,0,.07-.11v-1.79c0-.06,0-.11-.07-.11Z" transform="translate(-391.21 -190.38)" style="fill:#fff"/><path d="M425.84,210.45a.18.18,0,0,1-.12,0l-1.15-1a.16.16,0,0,1,0-.16s.07-.07.11,0l1.15,1a.06.06,0,0,0,.08,0l1.15-1s.08,0,.1,0a.14.14,0,0,1,0,.16l-1.15,1A.21.21,0,0,1,425.84,210.45Z" transform="translate(-391.21 -190.38)" style="fill:#fff"/><ellipse cx="6.27" cy="33.1" rx="2.31" ry="3.36" style="fill:#5c9ffb"/><path d="M398.55,224.71H396.4c-.13,0-.23-.15-.23-.34v-1.79c0-.18.1-.33.23-.33h2.15c.13,0,.23.15.23.33v1.79C398.78,224.56,398.68,224.71,398.55,224.71Zm-2.15-2.24s-.08.05-.08.11v1.79c0,.07,0,.12.08.12h2.15s.08-.05.08-.12v-1.79c0-.06,0-.11-.08-.11Z" transform="translate(-391.21 -190.38)" style="fill:#fff"/><path d="M398.21,224.71h-1.55c-.08,0-.15-.1-.15-.22a.5.5,0,0,1,0-.12l.47-1.17c0-.11.13-.15.21-.08a.16.16,0,0,1,.05.08l.3.76.18-.44c0-.11.13-.15.21-.08a.16.16,0,0,1,.05.08l.34.85a.28.28,0,0,1,0,.31.13.13,0,0,1-.08,0Zm0-.22h0l-.34-.86-.24.61a.08.08,0,0,1-.07,0h0a.07.07,0,0,1-.06,0l-.37-.93-.47,1.18Z" transform="translate(-391.21 -190.38)" style="fill:#fff"/><ellipse cx="7.11" cy="32.54" rx="0.15" ry="0.22" style="fill:#fff"/><ellipse cx="20.56" cy="32.76" rx="2.31" ry="3.36" style="fill:#5c9ffb"/><path d="M411.77,223.2c-.38,0-.69-.45-.69-1s.31-1,.69-1,.69.45.69,1S412.15,223.2,411.77,223.2Zm0-1.79c-.29,0-.54.35-.54.78s.25.78.54.78.54-.35.54-.78S412.07,221.41,411.77,221.41Z" transform="translate(-391.21 -190.38)" style="fill:#fff"/><path d="M412.39,225.1h-1.23c-.15,0-.27-.17-.27-.39,0-.71.39-1.29.88-1.29s.89.58.89,1.29C412.66,224.93,412.54,225.1,412.39,225.1Zm-.62-1.45c-.4,0-.73.47-.73,1.06,0,.09,0,.17.12.17h1.23c.06,0,.11-.08.11-.17C412.5,224.12,412.18,223.65,411.77,223.65Z" transform="translate(-391.21 -190.38)" style="fill:#fff"/></svg>