<?xml version="1.0" encoding="utf-8"?>
<!-- Generator: Adobe Illustrator 26.0.1, SVG Export Plug-In . SVG Version: 6.00 Build 0)  -->
<svg version="1.1" id="Layer_1" xmlns="http://www.w3.org/2000/svg" xmlns:xlink="http://www.w3.org/1999/xlink" x="0px" y="0px"
	 viewBox="0 0 710 620" style="enable-background:new 0 0 710 620;" xml:space="preserve">
<style type="text/css">
	.st0{fill:#403E56;}
	.st1{fill:#27B2E3;}
	.st2{fill:#FFFFFF;}
	.st3{opacity:0.2;fill:#010101;enable-background:new    ;}
</style>
<g>
	<path class="st0" d="M166.43,437.68l-1.55-0.02c0.54-49.49-31.64-89.96-71.88-90.39c-40.23-0.44-73.28,39.33-73.82,88.81
		l-1.55-0.02c0.55-50.54,34.3-91.15,75.39-90.7S166.97,387.15,166.43,437.68z"/>
	<path class="st0" d="M705.8,443.53l-1.55-0.02c0.54-49.49-31.64-89.96-71.88-90.39c-40.23-0.44-73.28,39.33-73.82,88.81l-1.55-0.02
		c0.55-50.54,34.3-91.15,75.39-90.7S706.35,392.99,705.8,443.53z"/>
	<path class="st0" d="M526.05,223.27l-1.55-0.02c0.98-90.4-58.02-164.6-131.52-165.4c-73.5-0.8-134.09,72.1-135.07,162.51
		l-1.55-0.02c0.99-91.46,62.29-165.2,136.64-164.4C467.36,56.75,527.04,131.81,526.05,223.27z"/>
	<polygon class="st0" points="138.6,279.5 192.03,203.03 295.42,204.15 357.79,280.54 356.5,281.53 356.96,281.54 355.25,438.99 
		136.97,436.63 138.68,279.17 	"/>
	
		<rect x="151.46" y="215.07" transform="matrix(0.0108 -0.9999 0.9999 0.0108 -46.0947 395.4723)" class="st0" width="50.76" height="11.92"/>
	<polygon class="st1" points="191.22,202.01 255.03,296.2 253.5,437.89 136.97,436.63 138.7,277.15 	"/>
	
		<rect x="212.83" y="317.53" transform="matrix(0.0108 -0.9999 0.9999 0.0108 -104.0834 553.6339)" class="st0" width="29.93" height="23.8"/>
	
		<rect x="212.38" y="358.25" transform="matrix(0.0108 -0.9999 0.9999 0.0108 -145.2419 593.4759)" class="st0" width="29.93" height="23.8"/>
	
		<rect x="212.83" y="317.53" transform="matrix(0.0108 -0.9999 0.9999 0.0108 -104.0834 553.6339)" class="st2" width="29.93" height="23.8"/>
	
		<rect x="212.38" y="358.25" transform="matrix(0.0108 -0.9999 0.9999 0.0108 -145.2419 593.4759)" class="st2" width="29.93" height="23.8"/>
	
		<rect x="179.91" y="317.17" transform="matrix(0.0108 -0.9999 0.9999 0.0108 -136.282 520.3714)" class="st0" width="29.93" height="23.8"/>
	
		<rect x="179.47" y="357.89" transform="matrix(0.0108 -0.9999 0.9999 0.0108 -177.4405 560.2134)" class="st0" width="29.93" height="23.8"/>
	
		<rect x="179.91" y="317.17" transform="matrix(0.0108 -0.9999 0.9999 0.0108 -136.282 520.3714)" class="st2" width="29.93" height="23.8"/>
	
		<rect x="179.47" y="357.89" transform="matrix(0.0108 -0.9999 0.9999 0.0108 -177.4405 560.2134)" class="st2" width="29.93" height="23.8"/>
	
		<rect x="147" y="316.81" transform="matrix(0.0108 -0.9999 0.9999 0.0108 -168.4806 487.1089)" class="st0" width="29.93" height="23.8"/>
	
		<rect x="146.56" y="357.54" transform="matrix(0.0108 -0.9999 0.9999 0.0108 -209.6391 526.951)" class="st0" width="29.93" height="23.8"/>
	
		<rect x="147" y="316.81" transform="matrix(0.0108 -0.9999 0.9999 0.0108 -168.4806 487.1089)" class="st2" width="29.93" height="23.8"/>
	
		<rect x="146.56" y="357.54" transform="matrix(0.0108 -0.9999 0.9999 0.0108 -209.6391 526.951)" class="st2" width="29.93" height="23.8"/>
	
		<rect x="386.57" y="34.91" transform="matrix(0.0108 -0.9999 0.9999 0.0108 358.553 443.119)" class="st1" width="33.36" height="10.85"/>
	
		<rect x="166.51" y="200.62" transform="matrix(0.0108 -0.9999 0.9999 0.0108 108.9383 603.5822)" class="st1" width="386.07" height="92.23"/>
	
		<rect x="231.22" y="228.83" transform="matrix(0.0108 -0.9999 0.9999 0.0108 172.246 668.9818)" class="st0" width="386.07" height="37.2"/>
	
		<rect x="330.13" y="88.43" transform="matrix(0.0108 -0.9999 0.9999 0.0108 239.646 433.0576)" class="st2" width="17.16" height="13.95"/>
	
		<rect x="352.61" y="88.67" transform="matrix(0.0108 -0.9999 0.9999 0.0108 261.6331 455.7712)" class="st2" width="17.16" height="13.95"/>
	
		<rect x="375.08" y="88.91" transform="matrix(0.0108 -0.9999 0.9999 0.0108 283.6202 478.4848)" class="st2" width="17.16" height="13.95"/>
	
		<rect x="330.1" y="127.51" transform="matrix(0.0108 -0.9999 0.9999 0.0108 200.5267 471.6842)" class="st2" width="17.16" height="13.95"/>
	
		<rect x="352.57" y="127.75" transform="matrix(0.0108 -0.9999 0.9999 0.0108 222.5139 494.3978)" class="st2" width="17.16" height="13.95"/>
	
		<rect x="375.04" y="128" transform="matrix(0.0108 -0.9999 0.9999 0.0108 244.501 517.1115)" class="st2" width="17.16" height="13.95"/>
	
		<rect x="330.06" y="166.6" transform="matrix(0.0108 -0.9999 0.9999 0.0108 161.4075 510.3109)" class="st2" width="17.16" height="13.95"/>
	
		<rect x="352.53" y="166.84" transform="matrix(0.0108 -0.9999 0.9999 0.0108 183.3946 533.0245)" class="st2" width="17.16" height="13.95"/>
	
		<rect x="375.01" y="167.08" transform="matrix(0.0108 -0.9999 0.9999 0.0108 205.3817 555.7381)" class="st2" width="17.16" height="13.95"/>
	
		<rect x="330.02" y="205.68" transform="matrix(0.0108 -0.9999 0.9999 0.0108 122.2882 548.9375)" class="st2" width="17.16" height="13.95"/>
	
		<rect x="352.5" y="205.93" transform="matrix(0.0108 -0.9999 0.9999 0.0108 144.2753 571.6511)" class="st2" width="17.16" height="13.95"/>
	
		<rect x="374.97" y="206.17" transform="matrix(0.0108 -0.9999 0.9999 0.0108 166.2625 594.3647)" class="st2" width="17.16" height="13.95"/>
	
		<rect x="329.99" y="244.77" transform="matrix(0.0108 -0.9999 0.9999 0.0108 83.1689 587.5641)" class="st2" width="17.16" height="13.95"/>
	
		<rect x="352.46" y="245.01" transform="matrix(0.0108 -0.9999 0.9999 0.0108 105.1561 610.2778)" class="st2" width="17.16" height="13.95"/>
	
		<rect x="374.94" y="245.26" transform="matrix(0.0108 -0.9999 0.9999 0.0108 127.1432 632.9914)" class="st2" width="17.16" height="13.95"/>
	
		<rect x="329.95" y="283.86" transform="matrix(0.0108 -0.9999 0.9999 0.0108 44.0497 626.1908)" class="st2" width="17.16" height="13.95"/>
	
		<rect x="352.43" y="284.1" transform="matrix(0.0108 -0.9999 0.9999 0.0108 66.0368 648.9044)" class="st2" width="17.16" height="13.95"/>
	
		<rect x="374.9" y="284.34" transform="matrix(0.0108 -0.9999 0.9999 0.0108 88.0239 671.618)" class="st2" width="17.16" height="13.95"/>
	
		<rect x="329.92" y="322.94" transform="matrix(0.0108 -0.9999 0.9999 0.0108 4.9304 664.8174)" class="st2" width="17.16" height="13.95"/>
	
		<rect x="352.39" y="323.19" transform="matrix(0.0108 -0.9999 0.9999 0.0108 26.9175 687.5311)" class="st2" width="17.16" height="13.95"/>
	
		<rect x="374.86" y="323.43" transform="matrix(0.0108 -0.9999 0.9999 0.0108 48.9047 710.2447)" class="st2" width="17.16" height="13.95"/>
	
		<rect x="329.88" y="362.03" transform="matrix(0.0108 -0.9999 0.9999 0.0108 -34.1889 703.4441)" class="st2" width="17.16" height="13.95"/>
	
		<rect x="352.35" y="362.27" transform="matrix(0.0108 -0.9999 0.9999 0.0108 -12.2017 726.1577)" class="st2" width="17.16" height="13.95"/>
	
		<rect x="344.15" y="415.65" transform="matrix(0.0108 -0.9999 0.9999 0.0108 -66.1507 778.3812)" class="st2" width="32.41" height="13.95"/>
	
		<rect x="374.83" y="362.51" transform="matrix(0.0108 -0.9999 0.9999 0.0108 9.7854 748.8713)" class="st2" width="17.16" height="13.95"/>
	
		<rect x="394.8" y="36.84" transform="matrix(0.0108 -0.9999 0.9999 0.0108 366.6165 450.485)" class="st0" width="32.41" height="6.2"/>
	
		<rect x="507.84" y="199.04" transform="matrix(0.0108 -0.9999 0.9999 0.0108 307.666 719.9518)" class="st1" width="19.77" height="10.85"/>
	
		<rect x="360.53" y="280.5" transform="matrix(0.0108 -0.9999 0.9999 0.0108 143.203 797.9868)" class="st1" width="228.82" height="92.23"/>
	
		<rect x="425.24" y="308.71" transform="matrix(0.0108 -0.9999 0.9999 0.0108 206.5108 863.3864)" class="st0" width="228.82" height="37.2"/>
	
		<rect x="446.23" y="246.03" transform="matrix(0.0108 -0.9999 0.9999 0.0108 196.8955 705.0484)" class="st2" width="17.16" height="13.95"/>
	
		<rect x="468.71" y="246.27" transform="matrix(0.0108 -0.9999 0.9999 0.0108 218.8826 727.762)" class="st2" width="17.16" height="13.95"/>
	
		<rect x="491.18" y="246.52" transform="matrix(0.0108 -0.9999 0.9999 0.0108 240.8698 750.4756)" class="st2" width="17.16" height="13.95"/>
	
		<rect x="446.2" y="285.11" transform="matrix(0.0108 -0.9999 0.9999 0.0108 157.7762 743.675)" class="st2" width="17.16" height="13.95"/>
	
		<rect x="468.67" y="285.36" transform="matrix(0.0108 -0.9999 0.9999 0.0108 179.7634 766.3887)" class="st2" width="17.16" height="13.95"/>
	
		<rect x="491.14" y="285.6" transform="matrix(0.0108 -0.9999 0.9999 0.0108 201.7505 789.1023)" class="st2" width="17.16" height="13.95"/>
	
		<rect x="446.16" y="324.2" transform="matrix(0.0108 -0.9999 0.9999 0.0108 118.657 782.3017)" class="st2" width="17.16" height="13.95"/>
	
		<rect x="468.63" y="324.44" transform="matrix(0.0108 -0.9999 0.9999 0.0108 140.6441 805.0153)" class="st2" width="17.16" height="13.95"/>
	
		<rect x="491.11" y="324.69" transform="matrix(0.0108 -0.9999 0.9999 0.0108 162.6312 827.7289)" class="st2" width="17.16" height="13.95"/>
	
		<rect x="446.12" y="363.29" transform="matrix(0.0108 -0.9999 0.9999 0.0108 79.5377 820.9283)" class="st2" width="17.16" height="13.95"/>
	
		<rect x="468.6" y="363.53" transform="matrix(0.0108 -0.9999 0.9999 0.0108 101.5248 843.642)" class="st2" width="17.16" height="13.95"/>
	
		<rect x="460.39" y="416.91" transform="matrix(0.0108 -0.9999 0.9999 0.0108 47.5759 895.8654)" class="st2" width="32.41" height="13.95"/>
	
		<rect x="491.07" y="363.77" transform="matrix(0.0108 -0.9999 0.9999 0.0108 123.512 866.3556)" class="st2" width="17.16" height="13.95"/>
	
		<rect x="515.88" y="201.17" transform="matrix(0.0108 -0.9999 0.9999 0.0108 315.5332 727.5078)" class="st0" width="19.21" height="6.2"/>
	
		<rect x="360.84" y="95.61" transform="matrix(0.0108 -0.9999 0.9999 0.0108 -81.7058 796.8433)" class="st0" width="2.14" height="688.21"/>
	
		<ellipse transform="matrix(0.0108 -0.9999 0.9999 0.0108 207.1677 954.7812)" class="st1" cx="586.17" cy="372.68" rx="24.82" ry="20.18"/>
	<path class="st3" d="M601.37,356.26c4.24,12.65-0.67,27.19-10.98,32.47c-8.02,4.11-17.25,1.46-22.93-6.56
		c4.24,12.65,16.04,18.63,26.35,13.36c10.31-5.28,15.22-19.81,10.98-32.47C603.95,360.58,602.8,358.28,601.37,356.26L601.37,356.26z
		"/>
	<polygon class="st0" points="586.23,372.68 586.29,372.68 586.52,443.07 584.41,443.04 	"/>
	<polygon class="st0" points="589.04,409.96 589.49,411.05 586.13,413.18 585.68,412.08 	"/>
	
		<ellipse transform="matrix(0.0108 -0.9999 0.9999 0.0108 302.2462 978.8954)" class="st1" cx="645.9" cy="336.68" rx="37.75" ry="30.69"/>
	<path class="st3" d="M669,311.71c6.46,19.24-1.02,41.35-16.69,49.37c-12.19,6.24-26.23,2.23-34.88-9.98
		c6.45,19.24,24.39,28.34,40.07,20.31c15.67-8.03,23.15-30.13,16.69-49.37C672.93,318.28,671.18,314.79,669,311.71z"/>
	<polygon class="st0" points="645.99,336.68 646.07,336.68 646.43,443.71 643.22,443.68 	"/>
	<polygon class="st0" points="650.25,393.37 650.94,395.03 645.83,398.26 645.15,396.6 	"/>
	
		<ellipse transform="matrix(0.0108 -0.9999 0.9999 0.0108 -327.1423 400.8895)" class="st1" cx="39.06" cy="365.8" rx="24.82" ry="20.18"/>
	<path class="st3" d="M54.25,349.38c4.24,12.65-0.67,27.19-10.98,32.47c-8.02,4.11-17.25,1.46-22.93-6.56
		c4.24,12.65,16.04,18.63,26.35,13.36s15.22-19.81,10.98-32.47C56.83,353.7,55.68,351.4,54.25,349.38L54.25,349.38z"/>
	<polygon class="st0" points="39.11,365.8 39.17,365.8 39.4,436.18 37.3,436.16 	"/>
	<polygon class="st0" points="41.92,403.08 42.37,404.17 39.01,406.3 38.56,405.2 	"/>
	<polygon class="st0" points="100,416.95 51.95,416.42 51.93,418.33 59.42,418.41 59.22,436.52 60.77,436.54 60.97,418.43 
		90.16,418.75 89.96,436.86 91.51,436.87 91.71,418.76 99.98,418.85 	"/>
	<path class="st0" d="M148.74,425.1c-1.9-0.02-3.77,0.57-5.42,1.72c-4.7-5.34-12.05-4.97-16.41,0.84c-1.96,2.61-3.07,6.02-3.1,9.56
		l35.61,0.39C159.09,430.63,154.42,425.16,148.74,425.1z"/>
	<path class="st0" d="M332.4,427.09c-1.9-0.02-3.77,0.57-5.42,1.72c-4.7-5.34-12.05-4.97-16.41,0.84c-1.96,2.61-3.07,6.02-3.1,9.56
		l35.61,0.39C342.75,432.62,338.09,427.15,332.4,427.09z"/>
	<path class="st0" d="M452.52,428.39c-1.9-0.02-3.77,0.57-5.42,1.72c-4.7-5.34-12.05-4.97-16.41,0.84c-1.96,2.61-3.07,6.02-3.1,9.56
		l35.61,0.39C462.87,433.92,458.21,428.46,452.52,428.39z"/>
	<path class="st0" d="M610.62,430.1c-1.9-0.02-3.77,0.57-5.42,1.72c-4.7-5.34-12.05-4.97-16.41,0.84c-1.96,2.61-3.07,6.02-3.1,9.56
		l35.61,0.39C620.97,435.63,616.31,430.17,610.62,430.1z"/>
	<path class="st0" d="M686.56,430.93c-1.9-0.02-3.77,0.57-5.42,1.72c-4.7-5.34-12.05-4.97-16.41,0.84c-1.96,2.61-3.07,6.02-3.1,9.56
		l35.61,0.39C696.91,436.45,692.25,430.99,686.56,430.93z"/>
	<polygon class="st0" points="118.33,370.43 105.93,370.3 105.76,385.55 111.51,385.61 110.95,437 112.5,437.02 113.06,385.63 
		118.16,385.68 	"/>
	
		<rect x="75.16" y="387.91" transform="matrix(0.0108 -0.9999 0.9999 0.0108 -336.618 483.5868)" class="st0" width="1.91" height="48.05"/>
	
		<rect x="75.22" y="383.14" transform="matrix(0.0108 -0.9999 0.9999 0.0108 -331.8011 478.924)" class="st0" width="1.91" height="48.05"/>
	
		<rect x="75.27" y="378.38" transform="matrix(0.0108 -0.9999 0.9999 0.0108 -326.9843 474.2612)" class="st0" width="1.91" height="48.05"/>
</g>
</svg>
